<?xml version="1.0" encoding="UTF-8" standalone="no"?>
<!-- Created with Inkscape (http://www.inkscape.org/) -->

<svg
   xmlns:dc="http://purl.org/dc/elements/1.1/"
   xmlns:cc="http://creativecommons.org/ns#"
   xmlns:rdf="http://www.w3.org/1999/02/22-rdf-syntax-ns#"
   xmlns:svg="http://www.w3.org/2000/svg"
   xmlns="http://www.w3.org/2000/svg"
   xmlns:sodipodi="http://sodipodi.sourceforge.net/DTD/sodipodi-0.dtd"
   xmlns:inkscape="http://www.inkscape.org/namespaces/inkscape"
   width="186.19202mm"
   height="36.129665mm"
   viewBox="0 0 186.19202 36.129665"
   version="1.1"
   id="svg8"
   inkscape:version="0.92.3 (2405546, 2018-03-11)"
   sodipodi:docname="CompanyLogo.svg">
  <defs
     id="defs2" />
  <sodipodi:namedview
     id="base"
     pagecolor="#ffffff"
     bordercolor="#666666"
     borderopacity="1.0"
     inkscape:pageopacity="0.0"
     inkscape:pageshadow="2"
     inkscape:zoom="1.4"
     inkscape:cx="349.1072"
     inkscape:cy="75.183003"
     inkscape:document-units="mm"
     inkscape:current-layer="layer1"
     showgrid="false"
     inkscape:snap-intersection-paths="true"
     inkscape:snap-global="true"
     inkscape:snap-bbox="true"
     fit-margin-top="0"
     fit-margin-left="0"
     fit-margin-right="0"
     fit-margin-bottom="0"
     inkscape:window-width="1920"
     inkscape:window-height="1017"
     inkscape:window-x="-8"
     inkscape:window-y="-8"
     inkscape:window-maximized="1" />
  <metadata
     id="metadata5">
    <rdf:RDF>
      <cc:Work
         rdf:about="">
        <dc:format>image/svg+xml</dc:format>
        <dc:type
           rdf:resource="http://purl.org/dc/dcmitype/StillImage" />
        <dc:title></dc:title>
      </cc:Work>
    </rdf:RDF>
  </metadata>
  <g
     inkscape:label="Layer 1"
     inkscape:groupmode="layer"
     id="layer1"
     transform="translate(218.32,-48.581085)">
    <g
       aria-label="E"
       transform="matrix(0.22868422,0,0,0.22868422,-34.976087,13.617115)"
       style="font-style:normal;font-weight:normal;font-size:40px;line-height:1.25;font-family:sans-serif;letter-spacing:0px;word-spacing:0px;fill:#e5e5e7;fill-opacity:1;stroke:none"
       id="flowRoot823">
      <path
         d="m -732.125,152.94607 h 65.8125 v 30.375 h -26.34375 v 28.78125 H -668 v 28.875 h -24.65625 v 33.375 h 28.96875 v 30.375 h -68.4375 z"
         style="font-style:normal;font-variant:normal;font-weight:normal;font-stretch:condensed;font-size:192px;font-family:Impact;-inkscape-font-specification:'Impact Condensed';fill:#e5e5e7;fill-opacity:1"
         id="path938" />
    </g>
    <g
       aria-label="G"
       transform="scale(0.26458333)"
       style="font-style:normal;font-weight:normal;font-size:40px;line-height:1.25;font-family:sans-serif;letter-spacing:0px;word-spacing:0px;fill:#b1c147;fill-opacity:1;stroke:none"
       id="flowRoot815">
      <path
         d="m -730.74023,272.30078 h -42.28125 v 4.78125 c 14.90625,1.40625 15.75,2.4375 15.75,12.46875 v 12.09375 c 0,4.21875 -1.40625,6.5625 -3.375,7.78125 -2.0625,1.21875 -5.53125,1.6875 -8.34375,1.6875 -24.375,0 -34.96875,-22.03125 -34.96875,-42.375 0,-24.46875 15,-39.28125 32.4375,-39.28125 13.875,0 24.9375,6.75 28.03125,22.21875 l 5.15625,-1.125 c -1.03125,-11.15625 -1.78125,-18.375 -2.15625,-23.0625 -5.0625,-1.03125 -16.40625,-3.9375 -28.125,-3.9375 -30.1875,0 -56.53125,16.40625 -56.53125,47.53125 0,27.84375 21.75,45.84375 54.75,45.84375 11.34375,0 24,-3.28125 32.625,-5.15625 -0.84375,-3.5625 -0.9375,-7.96875 -0.9375,-12.84375 v -10.5 c 0,-9.28125 0.9375,-9.9375 7.96875,-11.34375 z"
         style="font-style:normal;font-variant:normal;font-weight:bold;font-stretch:normal;font-size:192px;font-family:'Adobe Arabic';-inkscape-font-specification:'Adobe Arabic Bold';fill:#b1c147;fill-opacity:1"
         id="path935" />
    </g>
    <path
       style="fill:#b1c147;fill-opacity:1;stroke:none;stroke-width:0.2052681;stroke-miterlimit:4;stroke-dasharray:none;stroke-dashoffset:0;stroke-opacity:1"
       d="m -182.01706,48.581085 h 0.80181 v 35.145939 h -0.80181 z"
       id="rect831" />
    <g
       aria-label="GOUVIS"
       transform="matrix(0.42698062,0,0,0.42698062,93.140117,-35.280095)"
       style="font-style:normal;font-weight:normal;font-size:40px;line-height:1.25;font-family:sans-serif;letter-spacing:0px;word-spacing:0px;fill:#000000;fill-opacity:1;stroke:none"
       id="flowRoot833">
      <path
         d="m -613.21742,239.39017 h -11.08 v 1.52 c 3.64,0.36 3.84,0.6 3.84,3.04 v 4.12 c 0,1.08 -0.2,1.72 -0.64,2.08 -0.4,0.28 -0.96,0.44 -1.64,0.44 -4.96,0 -7.64,-5.68 -7.64,-11.96 0,-7.2 3.52,-11.24 7.48,-11.24 2.8,0 5.08,1.56 6.28,5.88 l 1.64,-0.32 c -0.32,-2.88 -0.52,-4.88 -0.6,-6.28 -1.4,-0.4 -3.84,-1.04 -6.6,-1.04 -7.56,0 -14.08,4.8 -14.08,13.84 0,7.56 4.8,12.92 13.2,12.92 3,0 5.88,-0.76 8.04,-1.36 -0.16,-1.08 -0.2,-2.32 -0.2,-3.76 v -3.44 c 0,-2.44 0.2,-2.56 2,-2.92 z"
         style="font-style:normal;font-variant:normal;font-weight:bold;font-stretch:condensed;font-family:'Minion Pro';-inkscape-font-specification:'Minion Pro Bold Condensed';fill:#b1c147;fill-opacity:1"
         id="path921" />
      <path
         d="m -598.75055,225.63017 c -8.08,0 -12,6.88 -12,13.48 0,7.6 4.6,13.28 11.64,13.28 6.64,0 11.76,-5.12 11.76,-13.52 0,-8 -4.88,-13.24 -11.36,-13.24 z m -0.52,1.8 c 3.76,0 5.96,4.72 5.96,12.4 0,7.08 -2.16,10.76 -5.2,10.76 -4.2,0 -6.28,-5.68 -6.28,-12.32 0,-6.2 2.08,-10.84 5.48,-10.84 z"
         style="font-style:normal;font-variant:normal;font-weight:bold;font-stretch:condensed;font-family:'Minion Pro';-inkscape-font-specification:'Minion Pro Bold Condensed';fill:#b1c147;fill-opacity:1"
         id="path923" />
      <path
         d="m -559.6243,226.15017 h -9.4 v 1.56 c 2.6,0.12 3.44,0.76 3.64,2.12 0.12,1.12 0.28,2.52 0.28,5.76 v 4.64 c 0,6.36 -2,9.28 -5.8,9.28 -3.8,0 -5.6,-2.76 -5.6,-8.44 v -9.44 c 0,-3.36 0.28,-3.68 2.84,-3.92 v -1.56 h -11.08 v 1.56 c 2.72,0.24 3,0.56 3,3.92 v 9.68 c 0,4.64 0.88,7.32 2.88,9 1.76,1.56 4.12,2.08 6.52,2.08 2.68,0 5.2,-1.04 6.84,-2.88 2,-2.32 2.56,-5.8 2.56,-9.76 v -4.16 c 0,-3.32 0.12,-4.52 0.32,-5.8 0.16,-1.36 1,-2 3,-2.08 z"
         style="font-style:normal;font-variant:normal;font-weight:bold;font-stretch:condensed;font-family:'Minion Pro';-inkscape-font-specification:'Minion Pro Bold Condensed';fill:#b1c147;fill-opacity:1"
         id="path925" />
      <path
         d="m -533.7818,226.15017 h -8.76 v 1.56 c 2.92,0.32 2.96,0.84 2.2,3.44 -1.04,3.68 -2.96,9.36 -4.48,13.6 h -0.08 c -1.36,-3.96 -4.16,-12.04 -5,-14.72 -0.52,-1.72 -0.4,-2 2.12,-2.32 l 0.04,-1.56 h -11.08 v 1.56 c 2.16,0.24 2.76,0.64 3.84,3.64 1.48,4.08 4.84,13.68 7.28,20.92 h 2.12 c 2.8,-8.08 6.24,-17.4 7.36,-20.24 1.4,-3.72 2.16,-4.04 4.44,-4.32 z"
         style="font-style:normal;font-variant:normal;font-weight:bold;font-stretch:condensed;font-family:'Minion Pro';-inkscape-font-specification:'Minion Pro Bold Condensed';fill:#b1c147;fill-opacity:1"
         id="path927" />
      <path
         d="m -520.7243,251.87017 v -1.56 c -2.68,-0.24 -2.96,-0.6 -2.96,-3.76 v -15.04 c 0,-3.24 0.24,-3.56 2.96,-3.8 v -1.56 h -11.2 v 1.56 c 2.72,0.24 3,0.56 3,3.8 v 15.04 c 0,3.16 -0.32,3.52 -3,3.76 v 1.56 z"
         style="font-style:normal;font-variant:normal;font-weight:bold;font-stretch:condensed;font-family:'Minion Pro';-inkscape-font-specification:'Minion Pro Bold Condensed';fill:#b1c147;fill-opacity:1"
         id="path929" />
      <path
         d="m -502.42367,232.35017 c -0.36,-2.52 -0.64,-4.2 -0.76,-5.72 -0.88,-0.32 -3.04,-1 -5.2,-1 -5.64,0 -8.72,3.4 -8.72,7.6 0,3.8 2.96,6.08 6.64,8.08 2.84,1.56 4.36,3.16 4.36,5.36 0,2.4 -1.44,3.96 -3.64,3.96 -3.68,0 -5.6,-4.12 -6.36,-6.52 l -1.64,0.44 c 0.32,2.52 0.8,5.44 1.16,6.48 0.56,0.24 1.24,0.52 2.32,0.84 1.08,0.32 2.36,0.52 3.76,0.52 5.64,0 9.24,-3.44 9.24,-7.92 0,-3.88 -2.72,-6.12 -6.64,-8.2 -3.12,-1.64 -4.56,-2.92 -4.56,-5.12 0,-2.32 1.68,-3.76 3.48,-3.76 3.04,0 4.12,2.76 4.92,5.24 z"
         style="font-style:normal;font-variant:normal;font-weight:bold;font-stretch:condensed;font-family:'Minion Pro';-inkscape-font-specification:'Minion Pro Bold Condensed';fill:#b1c147;fill-opacity:1"
         id="path931" />
    </g>
    <g
       aria-label="engineering"
       transform="matrix(0.43921144,0,0,0.43921144,265.68568,18.903573)"
       style="font-style:normal;font-weight:normal;font-size:40px;line-height:1.25;font-family:sans-serif;letter-spacing:0px;word-spacing:0px;fill:#000000;fill-opacity:1;stroke:none"
       id="flowRoot841">
      <path
         d="m -859.29492,110.06282 h -10.21485 v 5.60547 q 0,1.75781 0.25391,2.26563 0.25391,0.50781 0.97656,0.50781 0.89844,0 1.19141,-0.66406 0.3125,-0.6836 0.3125,-2.61719 v -3.41797 h 7.48047 v 1.91406 q 0,2.40235 -0.3125,3.69141 -0.29297,1.28906 -1.40625,2.7539 -1.11328,1.46485 -2.83203,2.20704 -1.69922,0.72265 -4.27735,0.72265 -2.5,0 -4.41406,-0.72265 -1.91406,-0.72266 -2.98828,-1.97266 -1.05469,-1.26953 -1.46484,-2.77344 -0.41016,-1.52344 -0.41016,-4.41406 v -7.55859 q 0,-3.39844 0.91797,-5.35157 0.91797,-1.972654 3.00781,-3.00781 2.08984,-1.054687 4.80469,-1.054687 3.32031,0 5.46875,1.269531 2.16797,1.25 3.02734,3.339846 0.87891,2.07031 0.87891,5.83984 z m -7.91016,-4.21875 v -1.89453 q 0,-2.01172 -0.21484,-2.59766 -0.21485,-0.58593 -0.87891,-0.58593 -0.82031,0 -1.01562,0.50781 -0.19532,0.48828 -0.19532,2.67578 v 1.89453 z"
         style="font-style:normal;font-variant:normal;font-weight:normal;font-stretch:condensed;font-family:Impact;-inkscape-font-specification:'Impact Condensed';fill:#afb0b2;fill-opacity:1"
         id="path898" />
      <path
         d="m -848.66992,96.644853 -0.13672,2.382812 q 0.85937,-1.425781 2.08984,-2.128906 1.25,-0.722656 2.8711,-0.722656 2.03125,0 3.32031,0.957031 1.28906,0.957031 1.66016,2.421875 0.37109,1.445311 0.37109,4.843751 v 18.16406 h -7.89063 V 104.6136 q 0,-2.67578 -0.17578,-3.26172 -0.17578,-0.58593 -0.97656,-0.58593 -0.83984,0 -1.05469,0.68359 -0.21484,0.66406 -0.21484,3.59375 v 17.51953 h -7.89063 V 96.644853 Z"
         style="font-style:normal;font-variant:normal;font-weight:normal;font-stretch:condensed;font-family:Impact;-inkscape-font-specification:'Impact Condensed';fill:#afb0b2;fill-opacity:1"
         id="path900" />
      <path
         d="m -817.83008,96.644853 v 19.960937 q 0,4.04297 -0.19531,5.23438 -0.17578,1.17187 -1.30859,2.48046 -1.13282,1.32813 -3.16407,2.01172 -2.01172,0.70313 -5.07812,0.70313 -3.76953,0 -6.05469,-1.28906 -2.28516,-1.26954 -2.36328,-5.01954 h 7.65625 q 0,1.71875 1.25,1.71875 0.89844,0 1.19141,-0.52734 0.29296,-0.52734 0.29296,-2.20703 v -1.95313 q -1.01562,0.91797 -2.14843,1.38672 -1.11328,0.46875 -2.34375,0.46875 -2.12891,0 -3.51563,-0.85937 -1.36719,-0.85938 -1.875,-2.2461 -0.50781,-1.40625 -0.50781,-3.98437 v -9.41406 q 0,-3.69141 1.32812,-5.312504 1.32813,-1.621093 4.04297,-1.621093 1.48438,0 2.69532,0.605468 1.23046,0.605469 2.1875,1.816407 l 0.5664,-1.953125 z m -7.91015,6.874997 q 0,-1.77734 -0.21485,-2.26562 -0.19531,-0.48828 -0.89844,-0.48828 -0.68359,0 -0.97656,0.5664 -0.27344,0.54688 -0.27344,2.1875 v 8.71094 q 0,1.73828 0.21485,2.26563 0.21484,0.50781 0.89844,0.50781 0.78125,0 1.01562,-0.625 0.23438,-0.625 0.23438,-2.83203 z"
         style="font-style:normal;font-variant:normal;font-weight:normal;font-stretch:condensed;font-family:Impact;-inkscape-font-specification:'Impact Condensed';fill:#afb0b2;fill-opacity:1"
         id="path902" />
      <path
         d="m -806.85352,90.941728 v 4.121093 h -8.125 v -4.121093 z m 0,5.703125 v 25.917967 h -8.125 V 96.644853 Z"
         style="font-style:normal;font-variant:normal;font-weight:normal;font-stretch:condensed;font-family:Impact;-inkscape-font-specification:'Impact Condensed';fill:#afb0b2;fill-opacity:1"
         id="path904" />
      <path
         d="m -796.01367,96.644853 -0.13672,2.382812 q 0.85937,-1.425781 2.08984,-2.128906 1.25,-0.722656 2.8711,-0.722656 2.03125,0 3.32031,0.957031 1.28906,0.957031 1.66016,2.421875 0.37109,1.445311 0.37109,4.843751 v 18.16406 h -7.89063 V 104.6136 q 0,-2.67578 -0.17578,-3.26172 -0.17578,-0.58593 -0.97656,-0.58593 -0.83984,0 -1.05469,0.68359 -0.21484,0.66406 -0.21484,3.59375 v 17.51953 h -7.89063 V 96.644853 Z"
         style="font-style:normal;font-variant:normal;font-weight:normal;font-stretch:condensed;font-family:Impact;-inkscape-font-specification:'Impact Condensed';fill:#afb0b2;fill-opacity:1"
         id="path906" />
      <path
         d="m -765.23242,110.06282 h -10.21485 v 5.60547 q 0,1.75781 0.25391,2.26563 0.25391,0.50781 0.97656,0.50781 0.89844,0 1.19141,-0.66406 0.3125,-0.6836 0.3125,-2.61719 v -3.41797 h 7.48047 v 1.91406 q 0,2.40235 -0.3125,3.69141 -0.29297,1.28906 -1.40625,2.7539 -1.11328,1.46485 -2.83203,2.20704 -1.69922,0.72265 -4.27735,0.72265 -2.5,0 -4.41406,-0.72265 -1.91406,-0.72266 -2.98828,-1.97266 -1.05469,-1.26953 -1.46484,-2.77344 -0.41016,-1.52344 -0.41016,-4.41406 v -7.55859 q 0,-3.39844 0.91797,-5.35157 0.91797,-1.972654 3.00781,-3.00781 2.08984,-1.054687 4.80469,-1.054687 3.32031,0 5.46875,1.269531 2.16797,1.25 3.02734,3.339846 0.87891,2.07031 0.87891,5.83984 z m -7.91016,-4.21875 v -1.89453 q 0,-2.01172 -0.21484,-2.59766 -0.21485,-0.58593 -0.87891,-0.58593 -0.82031,0 -1.01562,0.50781 -0.19532,0.48828 -0.19532,2.67578 v 1.89453 z"
         style="font-style:normal;font-variant:normal;font-weight:normal;font-stretch:condensed;font-family:Impact;-inkscape-font-specification:'Impact Condensed';fill:#afb0b2;fill-opacity:1"
         id="path908" />
      <path
         d="m -744.76367,110.06282 h -10.21485 v 5.60547 q 0,1.75781 0.25391,2.26563 0.25391,0.50781 0.97656,0.50781 0.89844,0 1.19141,-0.66406 0.3125,-0.6836 0.3125,-2.61719 v -3.41797 h 7.48047 v 1.91406 q 0,2.40235 -0.3125,3.69141 -0.29297,1.28906 -1.40625,2.7539 -1.11328,1.46485 -2.83203,2.20704 -1.69922,0.72265 -4.27735,0.72265 -2.5,0 -4.41406,-0.72265 -1.91406,-0.72266 -2.98828,-1.97266 -1.05469,-1.26953 -1.46484,-2.77344 -0.41016,-1.52344 -0.41016,-4.41406 v -7.55859 q 0,-3.39844 0.91797,-5.35157 0.91797,-1.972654 3.00781,-3.00781 2.08984,-1.054687 4.80469,-1.054687 3.32031,0 5.46875,1.269531 2.16797,1.25 3.02734,3.339846 0.87891,2.07031 0.87891,5.83984 z m -7.91016,-4.21875 v -1.89453 q 0,-2.01172 -0.21484,-2.59766 -0.21485,-0.58593 -0.87891,-0.58593 -0.82031,0 -1.01562,0.50781 -0.19532,0.48828 -0.19532,2.67578 v 1.89453 z"
         style="font-style:normal;font-variant:normal;font-weight:normal;font-stretch:condensed;font-family:Impact;-inkscape-font-specification:'Impact Condensed';fill:#afb0b2;fill-opacity:1"
         id="path910" />
      <path
         d="m -734.27539,96.644853 -0.3125,3.398437 q 1.71875,-3.652344 4.98047,-3.867187 v 9.121097 q -2.16797,0 -3.1836,0.58593 -1.01562,0.58594 -1.25,1.64063 -0.23437,1.03516 -0.23437,4.80469 v 10.23437 h -7.89063 V 96.644853 Z"
         style="font-style:normal;font-variant:normal;font-weight:normal;font-stretch:condensed;font-family:Impact;-inkscape-font-specification:'Impact Condensed';fill:#afb0b2;fill-opacity:1"
         id="path912" />
      <path
         d="m -719.74414,90.941728 v 4.121093 h -8.125 v -4.121093 z m 0,5.703125 v 25.917967 h -8.125 V 96.644853 Z"
         style="font-style:normal;font-variant:normal;font-weight:normal;font-stretch:condensed;font-family:Impact;-inkscape-font-specification:'Impact Condensed';fill:#afb0b2;fill-opacity:1"
         id="path914" />
      <path
         d="m -708.9043,96.644853 -0.13672,2.382812 q 0.85938,-1.425781 2.08985,-2.128906 1.25,-0.722656 2.87109,-0.722656 2.03125,0 3.32031,0.957031 1.28907,0.957031 1.66016,2.421875 0.37109,1.445311 0.37109,4.843751 v 18.16406 h -7.89062 V 104.6136 q 0,-2.67578 -0.17578,-3.26172 -0.17578,-0.58593 -0.97656,-0.58593 -0.83985,0 -1.05469,0.68359 -0.21485,0.66406 -0.21485,3.59375 v 17.51953 h -7.89062 V 96.644853 Z"
         style="font-style:normal;font-variant:normal;font-weight:normal;font-stretch:condensed;font-family:Impact;-inkscape-font-specification:'Impact Condensed';fill:#afb0b2;fill-opacity:1"
         id="path916" />
      <path
         d="m -678.06445,96.644853 v 19.960937 q 0,4.04297 -0.19532,5.23438 -0.17578,1.17187 -1.30859,2.48046 -1.13281,1.32813 -3.16406,2.01172 -2.01172,0.70313 -5.07813,0.70313 -3.76953,0 -6.05468,-1.28906 -2.28516,-1.26954 -2.36329,-5.01954 h 7.65625 q 0,1.71875 1.25,1.71875 0.89844,0 1.19141,-0.52734 0.29297,-0.52734 0.29297,-2.20703 v -1.95313 q -1.01563,0.91797 -2.14844,1.38672 -1.11328,0.46875 -2.34375,0.46875 -2.1289,0 -3.51562,-0.85937 -1.36719,-0.85938 -1.875,-2.2461 -0.50782,-1.40625 -0.50782,-3.98437 v -9.41406 q 0,-3.69141 1.32813,-5.312504 1.32812,-1.621093 4.04297,-1.621093 1.48437,0 2.69531,0.605468 1.23047,0.605469 2.1875,1.816407 l 0.56641,-1.953125 z m -7.91016,6.874997 q 0,-1.77734 -0.21484,-2.26562 -0.19532,-0.48828 -0.89844,-0.48828 -0.68359,0 -0.97656,0.5664 -0.27344,0.54688 -0.27344,2.1875 v 8.71094 q 0,1.73828 0.21484,2.26563 0.21485,0.50781 0.89844,0.50781 0.78125,0 1.01563,-0.625 0.23437,-0.625 0.23437,-2.83203 z"
         style="font-style:normal;font-variant:normal;font-weight:normal;font-stretch:condensed;font-family:Impact;-inkscape-font-specification:'Impact Condensed';fill:#afb0b2;fill-opacity:1"
         id="path918" />
    </g>
    <g
       aria-label="consulting group, inc."
       transform="matrix(0.26458333,0,0,0.26458333,4.8108515,-26.454311)"
       style="font-style:normal;font-weight:normal;font-size:40px;line-height:1.25;font-family:sans-serif;letter-spacing:0px;word-spacing:0px;fill:#b1c147;fill-opacity:1;stroke:none"
       id="flowRoot849">
      <path
         d="m -675.83594,396.8311 q 0,0.6836 -0.21484,1.21094 -0.19531,0.50781 -0.50781,0.85938 -0.3125,0.35156 -0.6836,0.52734 -0.37109,0.17578 -0.68359,0.17578 -0.78125,0 -1.11328,-0.41016 -0.3125,-0.41015 -0.3125,-0.97656 0,-0.48828 0.21484,-0.80078 0.23438,-0.33203 0.48828,-0.58594 0.27344,-0.27343 0.48828,-0.50781 0.23438,-0.25391 0.23438,-0.60547 0,-0.37109 -0.54688,-0.70312 -0.52734,-0.33203 -1.48437,-0.33203 -1.01563,0 -2.05078,0.42968 -1.01563,0.41016 -1.97266,1.15235 -0.95703,0.74218 -1.79687,1.77734 -0.82032,1.03516 -1.44532,2.28516 -0.60546,1.25 -0.95703,2.65625 -0.35156,1.40625 -0.35156,2.89062 0,1.05469 0.3125,1.875 0.3125,0.82031 0.87891,1.36719 0.5664,0.54687 1.34765,0.83984 0.78125,0.27344 1.71875,0.27344 0.87891,0 1.67969,-0.23437 0.80078,-0.23438 1.5625,-0.6836 0.76172,-0.46875 1.50391,-1.11328 0.74218,-0.64453 1.52343,-1.46484 l 0.58594,0.52734 q -0.89844,0.99609 -1.83594,1.85547 -0.91796,0.85937 -1.95312,1.50391 -1.01563,0.625 -2.1875,0.97656 -1.17188,0.37109 -2.55859,0.37109 -1.38672,0 -2.48047,-0.41015 -1.09375,-0.41016 -1.85547,-1.17188 -0.74219,-0.76172 -1.13281,-1.83594 -0.39063,-1.09375 -0.39063,-2.4414 0,-1.52344 0.46875,-3.02735 0.46875,-1.5039 1.28906,-2.87109 0.82032,-1.36719 1.9336,-2.53906 1.13281,-1.17188 2.4414,-2.03125 1.3086,-0.85938 2.75391,-1.34766 1.44531,-0.48828 2.89062,-0.48828 0.89844,0 1.66016,0.23437 0.78125,0.21485 1.34766,0.60547 0.5664,0.39063 0.8789,0.95703 0.3125,0.56641 0.3125,1.23047 z"
         style="font-style:italic;font-variant:normal;font-weight:normal;font-stretch:normal;font-family:'Dai Banna SIL Light';-inkscape-font-specification:'Dai Banna SIL Light, Italic';fill:#b1c147;fill-opacity:1"
         id="path857" />
      <path
         d="m -656.59766,399.99517 q 0,1.48437 -0.42968,2.94921 -0.41016,1.46485 -1.17188,2.8125 -0.76172,1.32813 -1.83594,2.46094 -1.05468,1.13281 -2.34375,1.97266 -1.28906,0.83984 -2.7539,1.30859 -1.44531,0.46875 -3.00781,0.46875 -1.42579,0 -2.51954,-0.50781 -1.09375,-0.50781 -1.83593,-1.36719 -0.74219,-0.85937 -1.13282,-1.99219 Q -674,406.96782 -674,405.69829 q 0,-1.54297 0.46875,-3.02734 0.46875,-1.48438 1.26953,-2.79297 0.82031,-1.32813 1.91406,-2.44141 1.11329,-1.11328 2.36329,-1.91406 1.26953,-0.82031 2.63671,-1.26953 1.38672,-0.44922 2.73438,-0.44922 1.34766,0 2.46094,0.48828 1.11328,0.46875 1.89453,1.30859 0.80078,0.83985 1.23047,1.97266 0.42968,1.13281 0.42968,2.42188 z m -3.32031,-1.42579 q 0,-0.89843 -0.23437,-1.58203 -0.23438,-0.70312 -0.66407,-1.1914 -0.42968,-0.48828 -1.01562,-0.74219 -0.56641,-0.25391 -1.23047,-0.25391 -0.9375,0 -1.875,0.50782 -0.9375,0.50781 -1.79687,1.40625 -0.85938,0.8789 -1.60157,2.07031 -0.74218,1.1914 -1.28906,2.55859 -0.54687,1.36719 -0.85937,2.85156 -0.3125,1.46485 -0.3125,2.91016 0,0.76172 0.17578,1.46484 0.19531,0.70313 0.58593,1.23047 0.41016,0.52735 1.03516,0.83985 0.625,0.3125 1.50391,0.3125 0.85937,0 1.75781,-0.46875 0.89844,-0.48828 1.73828,-1.32813 0.83984,-0.85937 1.58203,-2.03125 0.74219,-1.17187 1.28906,-2.53906 0.56641,-1.38672 0.87891,-2.91016 0.33203,-1.52343 0.33203,-3.10547 z"
         style="font-style:italic;font-variant:normal;font-weight:normal;font-stretch:normal;font-family:'Dai Banna SIL Light';-inkscape-font-specification:'Dai Banna SIL Light, Italic';fill:#b1c147;fill-opacity:1"
         id="path859" />
      <path
         d="m -636.79297,407.53423 q -1.54297,2.1289 -2.91015,3.28125 -1.34766,1.15234 -2.44141,1.15234 -0.70313,0 -1.09375,-0.29297 -0.39063,-0.27343 -0.50781,-0.82031 -0.11719,-0.56641 0,-1.38672 0.13672,-0.82031 0.44922,-1.89453 l 2.5,-8.61328 q 0.0586,-0.23438 0.19531,-0.70313 0.13672,-0.46875 0.13672,-0.9375 0.0195,-0.46875 -0.15625,-0.82031 -0.17578,-0.35156 -0.72266,-0.35156 -0.76172,0 -1.66016,0.64453 -0.89843,0.64453 -1.83593,1.69922 -0.91797,1.05469 -1.81641,2.38281 -0.89844,1.32813 -1.67969,2.71485 -0.76172,1.36718 -1.34765,2.65625 -0.56641,1.28906 -0.85938,2.24609 l -0.8789,3.00781 h -2.92969 l 3.67187,-12.77344 q 0.21485,-0.74218 0.33203,-1.32812 0.13672,-0.60547 0.0586,-1.01563 -0.0586,-0.41015 -0.39063,-0.625 -0.3125,-0.23437 -1.01562,-0.23437 -0.25391,0 -0.48828,0.0195 -0.23438,0.0195 -0.44922,0.0586 -0.23438,0.0391 -0.44922,0.0781 v -0.72266 l 6.77734,-1.15234 -2.61718,8.88672 q 1.40625,-2.10938 2.61718,-3.75 1.23047,-1.66016 2.36328,-2.79297 1.13282,-1.15234 2.22657,-1.73828 1.09375,-0.60547 2.26562,-0.60547 0.9961,0 1.44531,0.52734 0.46875,0.52735 0.58594,1.26953 0.11719,0.74219 0,1.54297 -0.11719,0.78125 -0.27344,1.3086 l -2.61718,9.12109 q -0.15625,0.54688 -0.29297,0.95703 -0.11719,0.39063 -0.13672,0.66406 -0.0195,0.25391 0.0977,0.39063 0.13671,0.13672 0.48828,0.13672 0.23437,0 0.5664,-0.21485 0.35157,-0.23437 0.72266,-0.60546 0.37109,-0.3711 0.74219,-0.83985 0.39062,-0.46875 0.74218,-0.95703 z"
         style="font-style:italic;font-variant:normal;font-weight:normal;font-stretch:normal;font-family:'Dai Banna SIL Light';-inkscape-font-specification:'Dai Banna SIL Light, Italic';fill:#b1c147;fill-opacity:1"
         id="path861" />
      <path
         d="m -620.60156,393.80376 -1.23047,5.99609 h -0.70313 q -0.0586,-1.40625 -0.44921,-2.5 -0.17579,-0.46875 -0.44922,-0.91797 -0.25391,-0.44921 -0.64453,-0.80078 -0.39063,-0.35156 -0.91797,-0.5664 -0.50782,-0.21485 -1.19141,-0.21485 -0.58594,0 -1.07422,0.17578 -0.48828,0.17579 -0.83984,0.48829 -0.35156,0.29296 -0.54688,0.72265 -0.19531,0.42969 -0.19531,0.91797 0,0.625 0.41016,1.32813 0.41015,0.68359 1.03515,1.44531 0.625,0.74219 1.34766,1.5625 0.72266,0.80078 1.34766,1.67969 0.625,0.85937 1.03515,1.79687 0.41016,0.91797 0.41016,1.89453 0,1.11328 -0.48828,2.05078 -0.48828,0.9375 -1.3086,1.64063 -0.82031,0.68359 -1.93359,1.07422 -1.09375,0.39062 -2.32422,0.39062 -0.80078,0 -1.40625,-0.13672 -0.60547,-0.13672 -1.09375,-0.3125 -0.46875,-0.17578 -0.85937,-0.3125 -0.39063,-0.13672 -0.74219,-0.13672 -0.42969,0 -0.70313,0.15625 -0.2539,0.13672 -0.41015,0.29297 -0.19532,0.21485 -0.27344,0.44922 h -0.70313 l 1.19141,-6.30859 h 0.70313 q -0.0195,1.52344 0.41015,2.71484 0.17578,0.50781 0.46875,0.9961 0.3125,0.46875 0.76172,0.85937 0.44922,0.37109 1.05469,0.60547 0.625,0.23437 1.46484,0.23437 1.50391,0 2.42188,-0.74218 0.91797,-0.76172 0.91797,-2.16797 0,-0.80078 -0.41016,-1.5625 -0.39063,-0.78125 -0.97656,-1.54297 -0.58594,-0.78125 -1.28907,-1.5625 -0.70312,-0.78125 -1.28906,-1.60156 -0.58594,-0.83985 -0.99609,-1.71875 -0.39063,-0.89844 -0.39063,-1.875 0,-1.17188 0.48828,-2.01172 0.48829,-0.85938 1.23047,-1.40625 0.76172,-0.54688 1.64063,-0.80078 0.8789,-0.27344 1.67969,-0.27344 0.64453,0 1.13281,0.15625 0.48828,0.13672 0.89844,0.3125 0.42968,0.15625 0.80078,0.3125 0.37109,0.13672 0.78125,0.13672 0.37109,0 0.625,-0.13672 0.27343,-0.13672 0.46875,-0.3125 0.21484,-0.21484 0.37109,-0.46875 z"
         style="font-style:italic;font-variant:normal;font-weight:normal;font-stretch:normal;font-family:'Dai Banna SIL Light';-inkscape-font-specification:'Dai Banna SIL Light, Italic';fill:#b1c147;fill-opacity:1"
         id="path863" />
      <path
         d="m -600.67969,394.29204 -3.41797,11.62109 q -0.17578,0.625 -0.39062,1.32813 -0.19531,0.68359 -0.29297,1.26953 -0.0781,0.58594 -0.0195,0.97656 0.0781,0.39063 0.42969,0.39063 0.48828,0 1.11328,-0.66406 0.625,-0.6836 1.62109,-2.03125 l 0.58594,0.42968 q -0.54688,0.87891 -1.17188,1.67969 -0.60546,0.78125 -1.26953,1.38672 -0.66406,0.58594 -1.38672,0.9375 -0.70312,0.35156 -1.44531,0.35156 -0.83984,0 -1.1914,-0.46875 -0.33204,-0.44922 -0.35157,-1.21094 0,-0.76171 0.23438,-1.75781 0.2539,-1.01562 0.5664,-2.10937 l 1.19141,-4.08203 q -1.07422,1.83593 -2.26562,3.57421 -1.19141,1.71875 -2.44141,3.06641 -1.23047,1.34766 -2.5,2.16797 -1.26953,0.82031 -2.51953,0.82031 -0.82031,0 -1.26953,-0.35156 -0.44922,-0.35156 -0.64453,-0.89844 -0.19532,-0.5664 -0.17579,-1.26953 0.0391,-0.70312 0.15625,-1.38672 0.11719,-0.70312 0.29297,-1.32812 0.17578,-0.64453 0.29297,-1.07422 l 2.03125,-7.48047 q 0.13672,-0.50781 0.23438,-0.91797 0.0976,-0.41016 0.0976,-0.70312 0,-0.29297 -0.11718,-0.44922 -0.0977,-0.15625 -0.39063,-0.15625 -0.48828,0 -1.07422,0.60547 -0.5664,0.58593 -1.54297,1.85546 l -0.66406,-0.42968 q 0.50781,-0.74219 1.13281,-1.48438 0.625,-0.76172 1.3086,-1.34765 0.70312,-0.60547 1.44531,-0.97657 0.76172,-0.37109 1.50391,-0.37109 0.8789,0 1.23046,0.46875 0.35157,0.46875 0.39063,1.15234 0.0586,0.6836 -0.11719,1.44532 -0.15625,0.74218 -0.3125,1.30859 l -2.53906,8.84766 q -0.17578,0.58593 -0.27344,1.07421 -0.0977,0.46875 -0.0586,0.82032 0.0391,0.33203 0.23437,0.50781 0.19532,0.17578 0.64453,0.17578 1.13282,0 2.83204,-1.66016 1.69921,-1.66015 3.96484,-5.17578 0.54687,-0.83984 0.97656,-1.71875 0.44922,-0.8789 0.83985,-1.89453 0.39062,-1.01562 0.76171,-2.20703 0.3711,-1.19141 0.78125,-2.65625 z"
         style="font-style:italic;font-variant:normal;font-weight:normal;font-stretch:normal;font-family:'Dai Banna SIL Light';-inkscape-font-specification:'Dai Banna SIL Light, Italic';fill:#b1c147;fill-opacity:1"
         id="path865" />
      <path
         d="m -587.59375,383.68657 -6.85547,23.88672 q -0.15625,0.50781 -0.23437,0.89844 -0.0781,0.39062 -0.0781,0.68359 0,0.33203 0.11719,0.50781 0.13672,0.17579 0.46875,0.17579 0.23437,0 0.60547,-0.23438 0.37109,-0.25391 0.78125,-0.64453 0.42969,-0.39063 0.85937,-0.87891 0.42969,-0.50781 0.76172,-1.01562 l 0.64453,0.42969 q -0.52734,0.83984 -1.21093,1.64062 -0.66407,0.80078 -1.40625,1.44531 -0.74219,0.625 -1.52344,0.9961 -0.78125,0.39062 -1.52344,0.39062 -0.97656,0 -1.34766,-0.46875 -0.37109,-0.46875 -0.37109,-1.26953 0,-0.56641 0.13672,-1.23047 0.13672,-0.68359 0.35156,-1.42578 l 5.50781,-18.96484 q 0.17579,-0.60547 0.33204,-1.13282 0.17578,-0.52734 0.17578,-0.95703 0,-0.50781 -0.35157,-0.80078 -0.33203,-0.3125 -1.23046,-0.3125 -0.25391,0 -0.48829,0.0195 -0.21484,0.0195 -0.41015,0.0391 -0.21485,0.0391 -0.41016,0.0586 v -0.72266 z"
         style="font-style:italic;font-variant:normal;font-weight:normal;font-stretch:normal;font-family:'Dai Banna SIL Light';-inkscape-font-specification:'Dai Banna SIL Light, Italic';fill:#b1c147;fill-opacity:1"
         id="path867" />
      <path
         d="m -576.42187,394.29204 -0.35157,1.23047 h -3.04687 l -3.57422,12.08984 q -0.13672,0.42969 -0.25391,0.91797 -0.0976,0.46875 -0.0976,0.85938 0,0.35156 0.11718,0.58593 0.13672,0.21485 0.46875,0.21485 0.23438,0 0.64454,-0.29297 0.42968,-0.29297 0.89843,-0.74219 0.46875,-0.44922 0.91797,-0.99609 0.46875,-0.54688 0.80078,-1.05469 l 0.66407,0.42969 q -0.52735,0.83984 -1.19141,1.64062 -0.64453,0.80078 -1.36719,1.44532 -0.70312,0.625 -1.46484,0.99609 -0.74219,0.39062 -1.48438,0.39062 -0.60547,0 -0.99609,-0.17578 -0.39063,-0.15625 -0.625,-0.44922 -0.23438,-0.29296 -0.33203,-0.68359 -0.0781,-0.39062 -0.0781,-0.82031 0,-0.56641 0.0977,-1.15235 0.11719,-0.60546 0.27344,-1.11328 l 3.59375,-12.08984 h -2.96875 l 0.19531,-0.76172 q 1.19141,-0.3125 2.10937,-0.80078 0.91797,-0.50781 1.69922,-1.21094 0.78125,-0.70312 1.48438,-1.64062 0.72265,-0.95703 1.48437,-2.16797 h 0.80078 l -1.5039,5.35156 z"
         style="font-style:italic;font-variant:normal;font-weight:normal;font-stretch:normal;font-family:'Dai Banna SIL Light';-inkscape-font-specification:'Dai Banna SIL Light, Italic';fill:#b1c147;fill-opacity:1"
         id="path869" />
      <path
         d="m -566.10937,387.98345 q 0,0.82031 -0.54688,1.40625 -0.54687,0.5664 -1.36719,0.5664 -0.41015,0 -0.78125,-0.15625 -0.35156,-0.15625 -0.625,-0.41015 -0.2539,-0.27344 -0.41015,-0.625 -0.15625,-0.3711 -0.15625,-0.78125 0,-0.82032 0.5664,-1.36719 0.58594,-0.54688 1.40625,-0.54688 0.82032,0 1.36719,0.54688 0.54688,0.54687 0.54688,1.36719 z m -1.67969,19.51172 q -0.52735,0.83984 -1.21094,1.64062 -0.66406,0.80078 -1.42578,1.44531 -0.74219,0.625 -1.52344,0.9961 -0.76172,0.39062 -1.5039,0.39062 -0.52735,0 -0.87891,-0.13672 -0.35156,-0.13672 -0.56641,-0.37109 -0.19531,-0.25391 -0.29297,-0.56641 -0.0781,-0.33203 -0.0781,-0.70312 0,-0.66406 0.19531,-1.36719 0.19531,-0.72266 0.35156,-1.25 l 2.61719,-8.84766 q 0.21485,-0.74218 0.33203,-1.26953 0.13672,-0.52734 0.13672,-0.91797 0,-1.09375 -1.13281,-1.09375 -0.25391,0 -0.54688,0.0391 -0.29296,0.0195 -0.5664,0.0586 -0.3125,0.0586 -0.64453,0.0977 v -0.72266 l 6.73828,-1.11328 -3.92578,13.76953 q -0.13672,0.46875 -0.23438,0.87891 -0.0781,0.39062 -0.0781,0.70312 0,0.33203 0.11718,0.50781 0.11719,0.17579 0.44922,0.17579 0.23438,0 0.60547,-0.23438 0.39063,-0.25391 0.80078,-0.64453 0.42969,-0.39063 0.83985,-0.87891 0.42968,-0.50781 0.76172,-1.01562 z"
         style="font-style:italic;font-variant:normal;font-weight:normal;font-stretch:normal;font-family:'Dai Banna SIL Light';-inkscape-font-specification:'Dai Banna SIL Light, Italic';fill:#b1c147;fill-opacity:1"
         id="path871" />
      <path
         d="m -547.88672,407.53423 q -1.54297,2.1289 -2.91015,3.28125 -1.34766,1.15234 -2.44141,1.15234 -0.70313,0 -1.09375,-0.29297 -0.39063,-0.27343 -0.50781,-0.82031 -0.11719,-0.56641 0,-1.38672 0.13672,-0.82031 0.44922,-1.89453 l 2.5,-8.61328 q 0.0586,-0.23438 0.19531,-0.70313 0.13672,-0.46875 0.13672,-0.9375 0.0195,-0.46875 -0.15625,-0.82031 -0.17578,-0.35156 -0.72266,-0.35156 -0.76172,0 -1.66016,0.64453 -0.89843,0.64453 -1.83593,1.69922 -0.91797,1.05469 -1.81641,2.38281 -0.89844,1.32813 -1.67969,2.71485 -0.76172,1.36718 -1.34765,2.65625 -0.56641,1.28906 -0.85938,2.24609 l -0.8789,3.00781 h -2.92969 l 3.67187,-12.77344 q 0.21485,-0.74218 0.33203,-1.32812 0.13672,-0.60547 0.0586,-1.01563 -0.0586,-0.41015 -0.39063,-0.625 -0.3125,-0.23437 -1.01562,-0.23437 -0.25391,0 -0.48828,0.0195 -0.23438,0.0195 -0.44922,0.0586 -0.23438,0.0391 -0.44922,0.0781 v -0.72266 l 6.77734,-1.15234 -2.61718,8.88672 q 1.40625,-2.10938 2.61718,-3.75 1.23047,-1.66016 2.36328,-2.79297 1.13282,-1.15234 2.22657,-1.73828 1.09375,-0.60547 2.26562,-0.60547 0.9961,0 1.44531,0.52734 0.46875,0.52735 0.58594,1.26953 0.11719,0.74219 0,1.54297 -0.11719,0.78125 -0.27344,1.3086 l -2.61718,9.12109 q -0.15625,0.54688 -0.29297,0.95703 -0.11719,0.39063 -0.13672,0.66406 -0.0195,0.25391 0.0977,0.39063 0.13671,0.13672 0.48828,0.13672 0.23437,0 0.5664,-0.21485 0.35157,-0.23437 0.72266,-0.60546 0.37109,-0.3711 0.74219,-0.83985 0.39062,-0.46875 0.74218,-0.95703 z"
         style="font-style:italic;font-variant:normal;font-weight:normal;font-stretch:normal;font-family:'Dai Banna SIL Light';-inkscape-font-specification:'Dai Banna SIL Light, Italic';fill:#b1c147;fill-opacity:1"
         id="path873" />
      <path
         d="m -525.38672,395.03423 -0.58594,2.03125 h -3.22265 q 0.15625,0.44922 0.2539,0.95703 0.0977,0.48828 0.0977,1.05469 0,1.13281 -0.50781,2.28515 -0.48828,1.15235 -1.52344,2.12891 -1.01562,0.95703 -2.59766,1.62109 -1.5625,0.64453 -3.73046,0.76172 -0.60547,0.17578 -1.21094,0.44922 -0.60547,0.27344 -1.09375,0.56641 -0.46875,0.29297 -0.78125,0.60547 -0.29297,0.29296 -0.29297,0.54687 0,0.27344 0.15625,0.50781 0.17578,0.21485 0.70312,0.42969 0.52735,0.21484 1.50391,0.46875 0.99609,0.23438 2.63672,0.54688 1.44531,0.29296 2.57812,0.66406 1.13282,0.35156 1.89454,0.85937 0.78125,0.50782 1.1914,1.21094 0.41016,0.70313 0.41016,1.66016 0,1.01562 -0.42969,1.83593 -0.42969,0.83985 -1.15234,1.46485 -0.72266,0.64453 -1.69922,1.11328 -0.95703,0.46875 -2.05078,0.76172 -1.07422,0.29297 -2.22657,0.42969 -1.13281,0.15625 -2.20703,0.15625 -1.62109,0 -3.08593,-0.29297 -1.44532,-0.27344 -2.5586,-0.82032 -1.09375,-0.52734 -1.73828,-1.32812 -0.66406,-0.78125 -0.66406,-1.77734 0,-0.78125 0.33203,-1.42579 0.3125,-0.64453 0.9375,-1.21093 0.625,-0.56641 1.5625,-1.13282 0.9375,-0.5664 2.16797,-1.21093 -0.56641,-0.3711 -0.76172,-0.74219 -0.19531,-0.37109 -0.19531,-0.78125 0,-0.99609 1.11328,-1.93359 1.11328,-0.9375 3.02734,-1.66016 -0.99609,-0.15625 -1.85547,-0.56641 -0.83984,-0.42968 -1.48437,-1.05468 -0.625,-0.64454 -0.9961,-1.44532 -0.35156,-0.82031 -0.35156,-1.77734 0,-1.40625 0.64453,-2.69531 0.64453,-1.3086 1.81641,-2.30469 1.19141,-0.99609 2.85156,-1.58203 1.66016,-0.60547 3.69141,-0.60547 2.53906,0 4.12109,1.23047 z m -6.8164,3.10547 q 0,-0.89844 -0.25391,-1.54297 -0.25391,-0.64453 -0.70313,-1.05469 -0.42968,-0.42969 -0.99609,-0.625 -0.56641,-0.19531 -1.19141,-0.19531 -1.01562,0 -1.93359,0.5664 -0.91797,0.56641 -1.62109,1.52344 -0.6836,0.9375 -1.09375,2.1875 -0.41016,1.25 -0.41016,2.61719 0,0.76172 0.23438,1.38672 0.23437,0.60547 0.66406,1.05469 0.42969,0.42968 0.99609,0.66406 0.58594,0.23437 1.26953,0.23437 1.07422,0 1.99219,-0.5664 0.9375,-0.58594 1.60156,-1.52344 0.6836,-0.95703 1.05469,-2.1875 0.39063,-1.23047 0.39063,-2.53906 z m 0.3125,17.4414 q 0,-0.5664 -0.27344,-0.99609 -0.27344,-0.42969 -0.95703,-0.80078 -0.66407,-0.3711 -1.81641,-0.70313 -1.13281,-0.3125 -2.89062,-0.66406 -2.46094,-0.46875 -3.65235,-0.95703 -0.89844,0.39062 -1.52344,0.91797 -0.625,0.52734 -1.03515,1.09375 -0.39063,0.58594 -0.56641,1.15234 -0.17578,0.56641 -0.17578,0.9961 0,0.54687 0.3125,1.13281 0.33203,0.58594 1.05469,1.05469 0.72265,0.48828 1.89453,0.80078 1.17187,0.3125 2.85156,0.3125 1.69922,0 2.96875,-0.3125 1.26953,-0.29297 2.10938,-0.78125 0.85937,-0.48828 1.26953,-1.07422 0.42969,-0.58594 0.42969,-1.17188 z"
         style="font-style:italic;font-variant:normal;font-weight:normal;font-stretch:normal;font-family:'Dai Banna SIL Light';-inkscape-font-specification:'Dai Banna SIL Light, Italic';fill:#b1c147;fill-opacity:1"
         id="path875" />
      <path
         d="m -495.77734,395.03423 -0.58594,2.03125 h -3.22266 q 0.15625,0.44922 0.25391,0.95703 0.0977,0.48828 0.0977,1.05469 0,1.13281 -0.50782,2.28515 -0.48828,1.15235 -1.52343,2.12891 -1.01563,0.95703 -2.59766,1.62109 -1.5625,0.64453 -3.73047,0.76172 -0.60547,0.17578 -1.21094,0.44922 -0.60547,0.27344 -1.09375,0.56641 -0.46875,0.29297 -0.78125,0.60547 -0.29297,0.29296 -0.29297,0.54687 0,0.27344 0.15625,0.50781 0.17579,0.21485 0.70313,0.42969 0.52734,0.21484 1.50391,0.46875 0.99609,0.23438 2.63671,0.54688 1.44532,0.29296 2.57813,0.66406 1.13281,0.35156 1.89453,0.85937 0.78125,0.50782 1.19141,1.21094 0.41015,0.70313 0.41015,1.66016 0,1.01562 -0.42968,1.83593 -0.42969,0.83985 -1.15235,1.46485 -0.72265,0.64453 -1.69922,1.11328 -0.95703,0.46875 -2.05078,0.76172 -1.07422,0.29297 -2.22656,0.42969 -1.13281,0.15625 -2.20703,0.15625 -1.6211,0 -3.08594,-0.29297 -1.44531,-0.27344 -2.55859,-0.82032 -1.09375,-0.52734 -1.73828,-1.32812 -0.66407,-0.78125 -0.66407,-1.77734 0,-0.78125 0.33203,-1.42579 0.3125,-0.64453 0.9375,-1.21093 0.625,-0.56641 1.5625,-1.13282 0.9375,-0.5664 2.16797,-1.21093 -0.5664,-0.3711 -0.76172,-0.74219 -0.19531,-0.37109 -0.19531,-0.78125 0,-0.99609 1.11328,-1.93359 1.11328,-0.9375 3.02735,-1.66016 -0.9961,-0.15625 -1.85547,-0.56641 -0.83985,-0.42968 -1.48438,-1.05468 -0.625,-0.64454 -0.99609,-1.44532 -0.35156,-0.82031 -0.35156,-1.77734 0,-1.40625 0.64453,-2.69531 0.64453,-1.3086 1.8164,-2.30469 1.19141,-0.99609 2.85157,-1.58203 1.66015,-0.60547 3.6914,-0.60547 2.53907,0 4.1211,1.23047 z m -6.81641,3.10547 q 0,-0.89844 -0.25391,-1.54297 -0.2539,-0.64453 -0.70312,-1.05469 -0.42969,-0.42969 -0.99609,-0.625 -0.56641,-0.19531 -1.19141,-0.19531 -1.01563,0 -1.93359,0.5664 -0.91797,0.56641 -1.6211,1.52344 -0.68359,0.9375 -1.09375,2.1875 -0.41015,1.25 -0.41015,2.61719 0,0.76172 0.23437,1.38672 0.23438,0.60547 0.66406,1.05469 0.42969,0.42968 0.9961,0.66406 0.58593,0.23437 1.26953,0.23437 1.07422,0 1.99219,-0.5664 0.9375,-0.58594 1.60156,-1.52344 0.68359,-0.95703 1.05469,-2.1875 0.39062,-1.23047 0.39062,-2.53906 z m 0.3125,17.4414 q 0,-0.5664 -0.27344,-0.99609 -0.27343,-0.42969 -0.95703,-0.80078 -0.66406,-0.3711 -1.8164,-0.70313 -1.13282,-0.3125 -2.89063,-0.66406 -2.46094,-0.46875 -3.65234,-0.95703 -0.89844,0.39062 -1.52344,0.91797 -0.625,0.52734 -1.03516,1.09375 -0.39062,0.58594 -0.5664,1.15234 -0.17578,0.56641 -0.17578,0.9961 0,0.54687 0.3125,1.13281 0.33203,0.58594 1.05468,1.05469 0.72266,0.48828 1.89453,0.80078 1.17188,0.3125 2.85157,0.3125 1.69922,0 2.96875,-0.3125 1.26953,-0.29297 2.10937,-0.78125 0.85938,-0.48828 1.26953,-1.07422 0.42969,-0.58594 0.42969,-1.17188 z"
         style="font-style:italic;font-variant:normal;font-weight:normal;font-stretch:normal;font-family:'Dai Banna SIL Light';-inkscape-font-specification:'Dai Banna SIL Light, Italic';fill:#b1c147;fill-opacity:1"
         id="path877" />
      <path
         d="m -480.50391,395.2686 q 0,0.3711 -0.11718,0.95703 -0.0977,0.56641 -0.35157,1.11329 -0.23437,0.52734 -0.625,0.91796 -0.37109,0.39063 -0.91796,0.39063 -0.42969,0 -0.64454,-0.13672 -0.21484,-0.13672 -0.33203,-0.33203 -0.0976,-0.21484 -0.13672,-0.44922 -0.0391,-0.25391 -0.0976,-0.44922 -0.0586,-0.21484 -0.17578,-0.35156 -0.0977,-0.13672 -0.35157,-0.13672 -0.21484,0 -0.39062,0.0586 -0.17578,0.0391 -0.37109,0.19532 -0.19532,0.13672 -0.44922,0.41015 -0.25391,0.25391 -0.625,0.6836 -2.67578,3.0664 -4.4336,6.42578 -1.75781,3.33984 -2.38281,6.93359 h -2.92969 l 3.67188,-12.77344 q 0.21484,-0.74218 0.33203,-1.32812 0.13672,-0.60547 0.0586,-1.01563 -0.0586,-0.41015 -0.39062,-0.625 -0.3125,-0.23437 -1.01563,-0.23437 -0.2539,0 -0.48828,0.0195 -0.23437,0.0195 -0.44922,0.0586 -0.23437,0.0391 -0.44922,0.0781 v -0.72266 l 6.77735,-1.15234 -2.77344,9.29687 q 1.25,-2.14843 2.32422,-3.67187 1.09375,-1.52344 1.99219,-2.53906 0.89843,-1.03516 1.62109,-1.64063 0.72266,-0.625 1.26953,-0.9375 0.54688,-0.3125 0.9375,-0.41015 0.39063,-0.0977 0.60547,-0.0977 0.52734,0 0.91797,0.35156 0.39062,0.35156 0.39062,1.11328 z"
         style="font-style:italic;font-variant:normal;font-weight:normal;font-stretch:normal;font-family:'Dai Banna SIL Light';-inkscape-font-specification:'Dai Banna SIL Light, Italic';fill:#b1c147;fill-opacity:1"
         id="path879" />
      <path
         d="m -462.45703,399.99517 q 0,1.48437 -0.42969,2.94921 -0.41015,1.46485 -1.17187,2.8125 -0.76172,1.32813 -1.83594,2.46094 -1.05469,1.13281 -2.34375,1.97266 -1.28906,0.83984 -2.75391,1.30859 -1.44531,0.46875 -3.00781,0.46875 -1.42578,0 -2.51953,-0.50781 -1.09375,-0.50781 -1.83594,-1.36719 -0.74219,-0.85937 -1.13281,-1.99219 -0.37109,-1.13281 -0.37109,-2.40234 0,-1.54297 0.46875,-3.02734 0.46875,-1.48438 1.26953,-2.79297 0.82031,-1.32813 1.91406,-2.44141 1.11328,-1.11328 2.36328,-1.91406 1.26953,-0.82031 2.63672,-1.26953 1.38672,-0.44922 2.73437,-0.44922 1.34766,0 2.46094,0.48828 1.11328,0.46875 1.89453,1.30859 0.80078,0.83985 1.23047,1.97266 0.42969,1.13281 0.42969,2.42188 z m -3.32031,-1.42579 q 0,-0.89843 -0.23438,-1.58203 -0.23437,-0.70312 -0.66406,-1.1914 -0.42969,-0.48828 -1.01563,-0.74219 -0.5664,-0.25391 -1.23046,-0.25391 -0.9375,0 -1.875,0.50782 -0.9375,0.50781 -1.79688,1.40625 -0.85937,0.8789 -1.60156,2.07031 -0.74219,1.1914 -1.28906,2.55859 -0.54688,1.36719 -0.85938,2.85156 -0.3125,1.46485 -0.3125,2.91016 0,0.76172 0.17578,1.46484 0.19531,0.70313 0.58594,1.23047 0.41016,0.52735 1.03516,0.83985 0.625,0.3125 1.5039,0.3125 0.85938,0 1.75781,-0.46875 0.89844,-0.48828 1.73829,-1.32813 0.83984,-0.85937 1.58203,-2.03125 0.74218,-1.17187 1.28906,-2.53906 0.56641,-1.38672 0.87891,-2.91016 0.33203,-1.52343 0.33203,-3.10547 z"
         style="font-style:italic;font-variant:normal;font-weight:normal;font-stretch:normal;font-family:'Dai Banna SIL Light';-inkscape-font-specification:'Dai Banna SIL Light, Italic';fill:#b1c147;fill-opacity:1"
         id="path881" />
      <path
         d="m -442.16406,394.29204 -3.41797,11.62109 q -0.17578,0.625 -0.39063,1.32813 -0.19531,0.68359 -0.29296,1.26953 -0.0781,0.58594 -0.0195,0.97656 0.0781,0.39063 0.42969,0.39063 0.48828,0 1.11328,-0.66406 0.625,-0.6836 1.6211,-2.03125 l 0.58593,0.42968 q -0.54687,0.87891 -1.17187,1.67969 -0.60547,0.78125 -1.26953,1.38672 -0.66406,0.58594 -1.38672,0.9375 -0.70313,0.35156 -1.44531,0.35156 -0.83985,0 -1.19141,-0.46875 -0.33203,-0.44922 -0.35156,-1.21094 0,-0.76171 0.23437,-1.75781 0.25391,-1.01562 0.56641,-2.10937 l 1.19141,-4.08203 q -1.07422,1.83593 -2.26563,3.57421 -1.19141,1.71875 -2.44141,3.06641 -1.23046,1.34766 -2.5,2.16797 -1.26953,0.82031 -2.51953,0.82031 -0.82031,0 -1.26953,-0.35156 -0.44922,-0.35156 -0.64453,-0.89844 -0.19531,-0.5664 -0.17578,-1.26953 0.0391,-0.70312 0.15625,-1.38672 0.11719,-0.70312 0.29297,-1.32812 0.17578,-0.64453 0.29297,-1.07422 l 2.03125,-7.48047 q 0.13672,-0.50781 0.23437,-0.91797 0.0977,-0.41016 0.0977,-0.70312 0,-0.29297 -0.11719,-0.44922 -0.0977,-0.15625 -0.39062,-0.15625 -0.48829,0 -1.07422,0.60547 -0.56641,0.58593 -1.54297,1.85546 l -0.66406,-0.42968 q 0.50781,-0.74219 1.13281,-1.48438 0.625,-0.76172 1.30859,-1.34765 0.70313,-0.60547 1.44531,-0.97657 0.76172,-0.37109 1.50391,-0.37109 0.87891,0 1.23047,0.46875 0.35156,0.46875 0.39062,1.15234 0.0586,0.6836 -0.11718,1.44532 -0.15625,0.74218 -0.3125,1.30859 l -2.53907,8.84766 q -0.17578,0.58593 -0.27343,1.07421 -0.0977,0.46875 -0.0586,0.82032 0.0391,0.33203 0.23438,0.50781 0.19531,0.17578 0.64453,0.17578 1.13281,0 2.83203,-1.66016 1.69922,-1.66015 3.96484,-5.17578 0.54688,-0.83984 0.97657,-1.71875 0.44922,-0.8789 0.83984,-1.89453 0.39063,-1.01562 0.76172,-2.20703 0.37109,-1.19141 0.78125,-2.65625 z"
         style="font-style:italic;font-variant:normal;font-weight:normal;font-stretch:normal;font-family:'Dai Banna SIL Light';-inkscape-font-specification:'Dai Banna SIL Light, Italic';fill:#b1c147;fill-opacity:1"
         id="path883" />
      <path
         d="m -422.08594,398.72563 q 0,1.3086 -0.41015,2.8125 -0.39063,1.48438 -1.13282,2.94922 -0.72265,1.46485 -1.75781,2.83203 -1.03515,1.34766 -2.32422,2.38282 -1.28906,1.03515 -2.79297,1.66015 -1.48437,0.60547 -3.125,0.60547 -1.01562,0 -1.8164,-0.23437 -0.80078,-0.21485 -1.71875,-0.78125 l -1.54297,5.42968 q -0.21484,0.72266 -0.3125,1.26954 -0.0781,0.5664 0.13672,0.9375 0.23437,0.37109 0.8789,0.5664 0.66407,0.19531 1.95313,0.19531 l -0.19531,0.72266 h -9.16016 l 0.19531,-0.72266 q 0.95703,0 1.5625,-0.19531 0.60547,-0.17578 0.97657,-0.5664 0.37109,-0.3711 0.60546,-0.95704 0.21485,-0.5664 0.42969,-1.32812 l 4.82422,-16.54297 q 0.35156,-1.21094 0.54688,-2.03125 0.19531,-0.82031 0.13671,-1.30859 -0.0586,-0.48828 -0.39062,-0.6836 -0.33203,-0.21484 -1.03516,-0.21484 -0.2539,0 -0.48828,0.0195 -0.23437,0.0195 -0.44922,0.0586 -0.23437,0.0391 -0.44922,0.0781 v -0.72266 l 6.77735,-1.15234 -1.38672,4.53125 q 1.01562,-1.21094 1.93359,-2.07031 0.9375,-0.85938 1.83594,-1.40625 0.89844,-0.54688 1.79688,-0.80078 0.89843,-0.25391 1.85546,-0.25391 0.78125,0 1.50391,0.39062 0.74219,0.3711 1.30859,1.05469 0.56641,0.66406 0.89844,1.5625 0.33203,0.89844 0.33203,1.91406 z m -3.33984,0.0391 q 0,-0.74219 -0.19531,-1.32813 -0.17578,-0.60547 -0.50782,-1.03515 -0.3125,-0.42969 -0.76171,-0.64454 -0.42969,-0.23437 -0.91797,-0.23437 -1.03516,0 -2.10938,0.60547 -1.07422,0.60547 -2.05078,1.69922 -0.95703,1.07422 -1.77734,2.57812 -0.80078,1.50391 -1.3086,3.28125 -0.33203,1.15235 -0.64453,2.22656 -0.27344,0.9375 -0.54687,1.91407 -0.27344,0.97656 -0.44922,1.64062 0.23437,0.35156 0.58594,0.625 0.35156,0.25391 0.78125,0.42969 0.44921,0.17578 0.9375,0.27344 0.48828,0.0781 0.95703,0.0781 1.05468,0 2.05078,-0.54687 1.01562,-0.56641 1.89453,-1.50391 0.89844,-0.9375 1.64062,-2.16797 0.74219,-1.23047 1.26954,-2.57812 0.54687,-1.34766 0.83984,-2.71485 0.3125,-1.38672 0.3125,-2.59765 z"
         style="font-style:italic;font-variant:normal;font-weight:normal;font-stretch:normal;font-family:'Dai Banna SIL Light';-inkscape-font-specification:'Dai Banna SIL Light, Italic';fill:#b1c147;fill-opacity:1"
         id="path885" />
      <path
         d="m -416.61719,410.0147 q 0,0.39062 -0.0391,0.80078 -0.0391,0.41015 -0.11719,0.82031 -0.23437,1.23047 -0.76172,2.30469 -0.50781,1.09375 -1.13281,1.97265 -0.625,0.89844 -1.30859,1.5625 -0.66406,0.6836 -1.21094,1.11329 -0.56641,0.44921 -0.91797,0.625 -0.37109,0.17578 -0.37109,0.0391 -0.0195,-0.0977 0.2539,-0.3711 0.27344,-0.27343 0.70313,-0.72265 0.42969,-0.44922 0.9375,-1.05469 0.52734,-0.60547 1.01562,-1.36719 0.50782,-0.74218 0.91797,-1.64062 0.41016,-0.89844 0.60547,-1.91406 0.0391,-0.15625 0.0391,-0.27344 0.0195,-0.27344 -0.0781,-0.44922 -0.0781,-0.19531 -0.17578,-0.19531 -0.0781,0 -0.19531,0.0976 -0.11719,0.0781 -0.27344,0.17578 -0.13672,0.11719 -0.3125,0.19532 -0.17578,0.0976 -0.35156,0.0976 -0.27344,0 -0.52735,-0.15625 -0.23437,-0.15625 -0.42969,-0.42968 -0.17578,-0.27344 -0.29296,-0.625 -0.0977,-0.3711 -0.0977,-0.76172 -0.0195,-0.48828 0.13672,-0.97657 0.15625,-0.48828 0.44922,-0.8789 0.3125,-0.41016 0.74218,-0.64453 0.42969,-0.25391 0.95704,-0.25391 0.48828,0 0.83984,0.23438 0.35156,0.23437 0.56641,0.625 0.23437,0.39062 0.33203,0.9375 0.0976,0.52734 0.0976,1.11328 z"
         style="font-style:italic;font-variant:normal;font-weight:normal;font-stretch:normal;font-family:'Dai Banna SIL Light';-inkscape-font-specification:'Dai Banna SIL Light, Italic';fill:#b1c147;fill-opacity:1"
         id="path887" />
      <path
         d="m -392.20312,387.98345 q 0,0.82031 -0.54688,1.40625 -0.54687,0.5664 -1.36719,0.5664 -0.41015,0 -0.78125,-0.15625 -0.35156,-0.15625 -0.625,-0.41015 -0.2539,-0.27344 -0.41015,-0.625 -0.15625,-0.3711 -0.15625,-0.78125 0,-0.82032 0.5664,-1.36719 0.58594,-0.54688 1.40625,-0.54688 0.82032,0 1.36719,0.54688 0.54688,0.54687 0.54688,1.36719 z m -1.67969,19.51172 q -0.52735,0.83984 -1.21094,1.64062 -0.66406,0.80078 -1.42578,1.44531 -0.74219,0.625 -1.52344,0.9961 -0.76172,0.39062 -1.5039,0.39062 -0.52735,0 -0.87891,-0.13672 -0.35156,-0.13672 -0.56641,-0.37109 -0.19531,-0.25391 -0.29297,-0.56641 -0.0781,-0.33203 -0.0781,-0.70312 0,-0.66406 0.19531,-1.36719 0.19531,-0.72266 0.35156,-1.25 l 2.61719,-8.84766 q 0.21485,-0.74218 0.33203,-1.26953 0.13672,-0.52734 0.13672,-0.91797 0,-1.09375 -1.13281,-1.09375 -0.25391,0 -0.54688,0.0391 -0.29296,0.0195 -0.5664,0.0586 -0.3125,0.0586 -0.64453,0.0977 v -0.72266 l 6.73828,-1.11328 -3.92578,13.76953 q -0.13672,0.46875 -0.23438,0.87891 -0.0781,0.39062 -0.0781,0.70312 0,0.33203 0.11718,0.50781 0.11719,0.17579 0.44922,0.17579 0.23438,0 0.60547,-0.23438 0.39063,-0.25391 0.80078,-0.64453 0.42969,-0.39063 0.83985,-0.87891 0.42968,-0.50781 0.76172,-1.01562 z"
         style="font-style:italic;font-variant:normal;font-weight:normal;font-stretch:normal;font-family:'Dai Banna SIL Light';-inkscape-font-specification:'Dai Banna SIL Light, Italic';fill:#b1c147;fill-opacity:1"
         id="path889" />
      <path
         d="m -373.98047,407.53423 q -1.54297,2.1289 -2.91015,3.28125 -1.34766,1.15234 -2.44141,1.15234 -0.70313,0 -1.09375,-0.29297 -0.39063,-0.27343 -0.50781,-0.82031 -0.11719,-0.56641 0,-1.38672 0.13672,-0.82031 0.44922,-1.89453 l 2.5,-8.61328 q 0.0586,-0.23438 0.19531,-0.70313 0.13672,-0.46875 0.13672,-0.9375 0.0195,-0.46875 -0.15625,-0.82031 -0.17578,-0.35156 -0.72266,-0.35156 -0.76172,0 -1.66016,0.64453 -0.89843,0.64453 -1.83593,1.69922 -0.91797,1.05469 -1.81641,2.38281 -0.89844,1.32813 -1.67969,2.71485 -0.76172,1.36718 -1.34765,2.65625 -0.56641,1.28906 -0.85938,2.24609 l -0.8789,3.00781 h -2.92969 l 3.67187,-12.77344 q 0.21485,-0.74218 0.33203,-1.32812 0.13672,-0.60547 0.0586,-1.01563 -0.0586,-0.41015 -0.39063,-0.625 -0.3125,-0.23437 -1.01562,-0.23437 -0.25391,0 -0.48828,0.0195 -0.23438,0.0195 -0.44922,0.0586 -0.23438,0.0391 -0.44922,0.0781 v -0.72266 l 6.77734,-1.15234 -2.61718,8.88672 q 1.40625,-2.10938 2.61718,-3.75 1.23047,-1.66016 2.36328,-2.79297 1.13282,-1.15234 2.22657,-1.73828 1.09375,-0.60547 2.26562,-0.60547 0.9961,0 1.44531,0.52734 0.46875,0.52735 0.58594,1.26953 0.11719,0.74219 0,1.54297 -0.11719,0.78125 -0.27344,1.3086 l -2.61718,9.12109 q -0.15625,0.54688 -0.29297,0.95703 -0.11719,0.39063 -0.13672,0.66406 -0.0195,0.25391 0.0977,0.39063 0.13671,0.13672 0.48828,0.13672 0.23437,0 0.5664,-0.21485 0.35157,-0.23437 0.72266,-0.60546 0.37109,-0.3711 0.74219,-0.83985 0.39062,-0.46875 0.74218,-0.95703 z"
         style="font-style:italic;font-variant:normal;font-weight:normal;font-stretch:normal;font-family:'Dai Banna SIL Light';-inkscape-font-specification:'Dai Banna SIL Light, Italic';fill:#b1c147;fill-opacity:1"
         id="path891" />
      <path
         d="m -355.21094,396.8311 q 0,0.6836 -0.21484,1.21094 -0.19531,0.50781 -0.50781,0.85938 -0.3125,0.35156 -0.6836,0.52734 -0.37109,0.17578 -0.68359,0.17578 -0.78125,0 -1.11328,-0.41016 -0.3125,-0.41015 -0.3125,-0.97656 0,-0.48828 0.21484,-0.80078 0.23438,-0.33203 0.48828,-0.58594 0.27344,-0.27343 0.48828,-0.50781 0.23438,-0.25391 0.23438,-0.60547 0,-0.37109 -0.54688,-0.70312 -0.52734,-0.33203 -1.48437,-0.33203 -1.01563,0 -2.05078,0.42968 -1.01563,0.41016 -1.97266,1.15235 -0.95703,0.74218 -1.79687,1.77734 -0.82032,1.03516 -1.44532,2.28516 -0.60546,1.25 -0.95703,2.65625 -0.35156,1.40625 -0.35156,2.89062 0,1.05469 0.3125,1.875 0.3125,0.82031 0.87891,1.36719 0.5664,0.54687 1.34765,0.83984 0.78125,0.27344 1.71875,0.27344 0.87891,0 1.67969,-0.23437 0.80078,-0.23438 1.5625,-0.6836 0.76172,-0.46875 1.50391,-1.11328 0.74218,-0.64453 1.52343,-1.46484 l 0.58594,0.52734 q -0.89844,0.99609 -1.83594,1.85547 -0.91796,0.85937 -1.95312,1.50391 -1.01563,0.625 -2.1875,0.97656 -1.17188,0.37109 -2.55859,0.37109 -1.38672,0 -2.48047,-0.41015 -1.09375,-0.41016 -1.85547,-1.17188 -0.74219,-0.76172 -1.13281,-1.83594 -0.39063,-1.09375 -0.39063,-2.4414 0,-1.52344 0.46875,-3.02735 0.46875,-1.5039 1.28906,-2.87109 0.82032,-1.36719 1.9336,-2.53906 1.13281,-1.17188 2.4414,-2.03125 1.3086,-0.85938 2.75391,-1.34766 1.44531,-0.48828 2.89062,-0.48828 0.89844,0 1.66016,0.23437 0.78125,0.21485 1.34766,0.60547 0.5664,0.39063 0.8789,0.95703 0.3125,0.56641 0.3125,1.23047 z"
         style="font-style:italic;font-variant:normal;font-weight:normal;font-stretch:normal;font-family:'Dai Banna SIL Light';-inkscape-font-specification:'Dai Banna SIL Light, Italic';fill:#b1c147;fill-opacity:1"
         id="path893" />
      <path
         d="m -350.42578,408.86235 q 0,0.48828 -0.17578,1.01563 -0.15625,0.52734 -0.46875,0.97656 -0.3125,0.42969 -0.78125,0.70313 -0.44922,0.29296 -1.01563,0.29296 -0.64453,0 -1.07422,-0.5664 -0.42968,-0.56641 -0.42968,-1.42578 0,-0.50782 0.15625,-1.01563 0.17578,-0.50781 0.48828,-0.91797 0.3125,-0.41015 0.76172,-0.66406 0.46875,-0.25391 1.03515,-0.25391 0.27344,0 0.52735,0.13672 0.27343,0.13672 0.48828,0.39063 0.21484,0.23437 0.35156,0.58594 0.13672,0.33203 0.13672,0.74218 z"
         style="font-style:italic;font-variant:normal;font-weight:normal;font-stretch:normal;font-family:'Dai Banna SIL Light';-inkscape-font-specification:'Dai Banna SIL Light, Italic';fill:#b1c147;fill-opacity:1"
         id="path895" />
    </g>
  </g>
</svg>
