<?xml version="1.0" encoding="UTF-8" standalone="no"?>
<!-- Created with Inkscape (http://www.inkscape.org/) -->

<svg
   xmlns:dc="http://purl.org/dc/elements/1.1/"
   xmlns:cc="http://creativecommons.org/ns#"
   xmlns:rdf="http://www.w3.org/1999/02/22-rdf-syntax-ns#"
   xmlns:svg="http://www.w3.org/2000/svg"
   xmlns="http://www.w3.org/2000/svg"
   xmlns:sodipodi="http://sodipodi.sourceforge.net/DTD/sodipodi-0.dtd"
   xmlns:inkscape="http://www.inkscape.org/namespaces/inkscape"
   width="135.36771mm"
   height="106.36197mm"
   viewBox="0 0 135.36771 106.36197"
   version="1.1"
   id="svg8"
   inkscape:version="0.92.3 (2405546, 2018-03-11)"
   sodipodi:docname="drawing.svg">
  <defs
     id="defs2" />
  <sodipodi:namedview
     id="base"
     pagecolor="#ffffff"
     bordercolor="#666666"
     borderopacity="1.0"
     inkscape:pageopacity="0.0"
     inkscape:pageshadow="2"
     inkscape:zoom="0.35"
     inkscape:cx="-142.75843"
     inkscape:cy="203.85614"
     inkscape:document-units="mm"
     inkscape:current-layer="layer1"
     showgrid="false"
     fit-margin-top="0"
     fit-margin-left="0"
     fit-margin-right="0"
     fit-margin-bottom="0"
     inkscape:window-width="1920"
     inkscape:window-height="1017"
     inkscape:window-x="-8"
     inkscape:window-y="-8"
     inkscape:window-maximized="1" />
  <metadata
     id="metadata5">
    <rdf:RDF>
      <cc:Work
         rdf:about="">
        <dc:format>image/svg+xml</dc:format>
        <dc:type
           rdf:resource="http://purl.org/dc/dcmitype/StillImage" />
        <dc:title></dc:title>
      </cc:Work>
    </rdf:RDF>
  </metadata>
  <g
     inkscape:label="Layer 1"
     inkscape:groupmode="layer"
     id="layer1"
     transform="translate(-20.762573,-96.408301)">
    <g
       id="g891"
       transform="matrix(0.26458333,0,0,0.26458333,20.762573,81.90543)"
       style="fill:#b1c147;fill-opacity:1">
      <g
         id="g829"
         style="fill:#b1c147;fill-opacity:1">
	<g
   id="g827"
   style="fill:#b1c147;fill-opacity:1">
		<path
   id="path815"
   d="M 118.771,200.999 H 27.406 c -7.611,0 -14.084,2.664 -19.414,7.994 C 2.663,214.32 0,220.791 0,228.407 v 54.823 c 0,7.61 2.663,14.078 7.992,19.406 5.33,5.329 11.803,7.994 19.414,7.994 h 91.365 c 7.611,0 14.084,-2.665 19.414,-7.994 5.33,-5.328 7.992,-11.796 7.992,-19.406 v -54.823 c 0,-7.616 -2.662,-14.087 -7.992,-19.414 -5.33,-5.327 -11.803,-7.994 -19.414,-7.994 z"
   inkscape:connector-curvature="0"
   style="fill:#b1c147;fill-opacity:1" />

		<path
   id="path817"
   d="M 118.771,54.814 H 27.406 c -7.611,0 -14.084,2.663 -19.414,7.993 C 2.663,68.137 0,74.61 0,82.221 v 54.821 c 0,7.616 2.663,14.091 7.992,19.417 5.33,5.327 11.803,7.994 19.414,7.994 h 91.365 c 7.611,0 14.084,-2.667 19.414,-7.994 5.33,-5.327 7.992,-11.798 7.992,-19.414 v -54.82 c 0,-7.611 -2.662,-14.084 -7.992,-19.417 -5.33,-5.328 -11.803,-7.994 -19.414,-7.994 z"
   inkscape:connector-curvature="0"
   style="fill:#b1c147;fill-opacity:1" />

		<path
   id="path819"
   d="M 118.771,347.177 H 27.406 c -7.611,0 -14.084,2.662 -19.414,7.994 C 2.663,360.502 0,366.974 0,374.585 v 54.826 c 0,7.61 2.663,14.086 7.992,19.41 5.33,5.332 11.803,7.991 19.414,7.991 h 91.365 c 7.611,0 14.084,-2.663 19.414,-7.991 5.33,-5.324 7.992,-11.8 7.992,-19.41 v -54.826 c 0,-7.611 -2.662,-14.083 -7.992,-19.411 -5.33,-5.328 -11.803,-7.997 -19.414,-7.997 z"
   inkscape:connector-curvature="0"
   style="fill:#b1c147;fill-opacity:1" />

		<path
   id="path821"
   d="M 484.215,200.999 H 210.131 c -7.614,0 -14.084,2.664 -19.414,7.994 -5.33,5.33 -7.992,11.798 -7.992,19.414 v 54.823 c 0,7.61 2.662,14.078 7.992,19.406 5.327,5.329 11.8,7.994 19.414,7.994 h 274.091 c 7.61,0 14.085,-2.665 19.41,-7.994 5.332,-5.328 7.994,-11.796 7.994,-19.406 v -54.823 c 0,-7.616 -2.662,-14.087 -7.997,-19.414 -5.329,-5.33 -11.796,-7.994 -19.414,-7.994 z"
   inkscape:connector-curvature="0"
   style="fill:#b1c147;fill-opacity:1" />

		<path
   id="path823"
   d="M 484.215,347.177 H 210.131 c -7.614,0 -14.084,2.662 -19.414,7.994 -5.33,5.331 -7.992,11.8 -7.992,19.41 v 54.823 c 0,7.611 2.662,14.089 7.992,19.417 5.327,5.328 11.8,7.987 19.414,7.987 h 274.091 c 7.61,0 14.085,-2.662 19.41,-7.987 5.332,-5.331 7.994,-11.806 7.994,-19.417 v -54.823 c 0,-7.61 -2.662,-14.085 -7.997,-19.41 -5.329,-5.325 -11.796,-7.994 -19.414,-7.994 z"
   inkscape:connector-curvature="0"
   style="fill:#b1c147;fill-opacity:1" />

		<path
   id="path825"
   d="M 503.629,62.811 C 498.3,57.484 491.832,54.818 484.215,54.818 H 210.131 c -7.614,0 -14.084,2.663 -19.414,7.993 -5.33,5.33 -7.992,11.803 -7.992,19.414 v 54.821 c 0,7.616 2.662,14.083 7.992,19.414 5.327,5.327 11.8,7.994 19.414,7.994 h 274.091 c 7.61,0 14.078,-2.667 19.41,-7.994 5.332,-5.327 7.994,-11.798 7.994,-19.414 V 82.225 c 0,-7.612 -2.662,-14.084 -7.997,-19.414 z"
   inkscape:connector-curvature="0"
   style="fill:#b1c147;fill-opacity:1" />

	</g>

</g>
      <g
         id="g831"
         style="fill:#b1c147;fill-opacity:1">
</g>
      <g
         id="g833"
         style="fill:#b1c147;fill-opacity:1">
</g>
      <g
         id="g835"
         style="fill:#b1c147;fill-opacity:1">
</g>
      <g
         id="g837"
         style="fill:#b1c147;fill-opacity:1">
</g>
      <g
         id="g839"
         style="fill:#b1c147;fill-opacity:1">
</g>
      <g
         id="g841"
         style="fill:#b1c147;fill-opacity:1">
</g>
      <g
         id="g843"
         style="fill:#b1c147;fill-opacity:1">
</g>
      <g
         id="g845"
         style="fill:#b1c147;fill-opacity:1">
</g>
      <g
         id="g847"
         style="fill:#b1c147;fill-opacity:1">
</g>
      <g
         id="g849"
         style="fill:#b1c147;fill-opacity:1">
</g>
      <g
         id="g851"
         style="fill:#b1c147;fill-opacity:1">
</g>
      <g
         id="g853"
         style="fill:#b1c147;fill-opacity:1">
</g>
      <g
         id="g855"
         style="fill:#b1c147;fill-opacity:1">
</g>
      <g
         id="g857"
         style="fill:#b1c147;fill-opacity:1">
</g>
      <g
         id="g859"
         style="fill:#b1c147;fill-opacity:1">
</g>
    </g>
  </g>
</svg>
