<?xml version="1.0" encoding="UTF-8" standalone="no"?>
<!-- Created with Inkscape (http://www.inkscape.org/) -->

<svg
   xmlns:dc="http://purl.org/dc/elements/1.1/"
   xmlns:cc="http://creativecommons.org/ns#"
   xmlns:rdf="http://www.w3.org/1999/02/22-rdf-syntax-ns#"
   xmlns:svg="http://www.w3.org/2000/svg"
   xmlns="http://www.w3.org/2000/svg"
   xmlns:sodipodi="http://sodipodi.sourceforge.net/DTD/sodipodi-0.dtd"
   xmlns:inkscape="http://www.inkscape.org/namespaces/inkscape"
   width="430.89258mm"
   height="214.27432mm"
   viewBox="0 0 430.89258 214.27432"
   version="1.1"
   id="svg8"
   inkscape:version="0.92.3 (2405546, 2018-03-11)"
   sodipodi:docname="QuoteTemplate.svg">
  <defs
     id="defs2" />
  <sodipodi:namedview
     id="base"
     pagecolor="#ffffff"
     bordercolor="#666666"
     borderopacity="1.0"
     inkscape:pageopacity="0.0"
     inkscape:pageshadow="2"
     inkscape:zoom="0.175"
     inkscape:cx="2128.0876"
     inkscape:cy="-277.91117"
     inkscape:document-units="mm"
     inkscape:current-layer="layer1"
     showgrid="false"
     inkscape:object-nodes="true"
     inkscape:snap-intersection-paths="true"
     inkscape:snap-global="true"
     inkscape:snap-smooth-nodes="true"
     inkscape:snap-bbox="false"
     inkscape:object-paths="true"
     fit-margin-top="0"
     fit-margin-left="0"
     fit-margin-right="0"
     fit-margin-bottom="0"
     inkscape:window-width="1920"
     inkscape:window-height="1017"
     inkscape:window-x="-8"
     inkscape:window-y="-8"
     inkscape:window-maximized="1" />
  <metadata
     id="metadata5">
    <rdf:RDF>
      <cc:Work
         rdf:about="">
        <dc:format>image/svg+xml</dc:format>
        <dc:type
           rdf:resource="http://purl.org/dc/dcmitype/StillImage" />
        <dc:title></dc:title>
      </cc:Work>
    </rdf:RDF>
  </metadata>
  <g
     inkscape:label="Layer 1"
     inkscape:groupmode="layer"
     id="layer1"
     transform="translate(487.58884,-47.655094)">
    <path
       style="fill:#b1c147;fill-opacity:1;stroke:none;stroke-width:1.00157475;stroke-miterlimit:4;stroke-dasharray:none;stroke-dashoffset:0;stroke-opacity:1"
       d="m -1451.4277,231.08984 v 17.44336 h 1004.81051 c 117.30963,0 211.75,94.44038 211.75,211.75 v 241.61328 c 0,58.85187 -23.77424,111.94267 -62.27539,150.2461 v 29.72265 c 50.5885,-40.78585 82.85742,-103.29783 82.85742,-173.63281 V 453.94727 c 0,-123.46286 -99.39457,-222.85743 -222.85742,-222.85743 z m -300,42.65039 c -55.4888,40.45831 -91.4278,105.97568 -91.4278,180.20704 v 254.28515 c 0,123.46284 99.3927,222.85742 222.8555,222.85742 H -597.14258 V 913.64648 H -1610.5234 c -117.3097,0 -211.75,-94.44041 -211.75,-211.75 V 460.2832 c 0,-63.10088 27.3345,-119.57264 70.8457,-158.30078 z"
       transform="scale(0.26458333)"
       id="rect815"
       inkscape:connector-curvature="0" />
    <g
       aria-label="&quot;"
       transform="matrix(0.72154699,0,0,0.64873545,449.84908,156.38181)"
       style="font-style:normal;font-variant:normal;font-weight:normal;font-stretch:normal;font-size:40px;line-height:1.25;font-family:Georgia;-inkscape-font-specification:Georgia;letter-spacing:0px;word-spacing:0px;fill:#b1c147;fill-opacity:1;stroke:none"
       id="flowRoot857">
      <path
         d="m -1186.3164,-157.09793 q 0,3.75 -2.4375,14.4375 -2.4375,10.6875 -5.4375,27.75 h -5.8125 q -2.1563,-13.875 -4.875,-26.4375 -2.625,-12.5625 -2.625,-15.75 0,-4.3125 2.625,-7.40625 2.625,-3.09375 7.9687,-3.09375 5.1563,0 7.875,3.09375 2.7188,3.09375 2.7188,7.40625 z m -35.8125,0 q 0,3.75 -2.4375,14.4375 -2.4375,10.6875 -5.4375,27.75 h -5.7188 q -2.5312,-15.9375 -5.0625,-27.1875 -2.4375,-11.34375 -2.4375,-15 0,-4.3125 2.625,-7.40625 2.625,-3.09375 7.9688,-3.09375 5.0625,0 7.7812,3.09375 2.7188,3.09375 2.7188,7.40625 z"
         style="font-style:normal;font-variant:normal;font-weight:normal;font-stretch:normal;font-size:192px;font-family:Georgia;-inkscape-font-specification:Georgia;fill:#b1c147;fill-opacity:1"
         id="path1043" />
    </g>
    <g
       aria-label="&quot;"
       transform="matrix(-0.72154698,0,0,-0.64873545,-998.97753,153.2027)"
       style="font-style:normal;font-variant:normal;font-weight:normal;font-stretch:normal;font-size:40px;line-height:1.25;font-family:Georgia;-inkscape-font-specification:Georgia;letter-spacing:0px;word-spacing:0px;fill:#b1c147;fill-opacity:1;stroke:none"
       id="flowRoot857-7">
      <path
         d="m -1186.3164,-157.09793 q 0,3.75 -2.4375,14.4375 -2.4375,10.6875 -5.4375,27.75 h -5.8125 q -2.1563,-13.875 -4.875,-26.4375 -2.625,-12.5625 -2.625,-15.75 0,-4.3125 2.625,-7.40625 2.625,-3.09375 7.9687,-3.09375 5.1563,0 7.875,3.09375 2.7188,3.09375 2.7188,7.40625 z m -35.8125,0 q 0,3.75 -2.4375,14.4375 -2.4375,10.6875 -5.4375,27.75 h -5.7188 q -2.5312,-15.9375 -5.0625,-27.1875 -2.4375,-11.34375 -2.4375,-15 0,-4.3125 2.625,-7.40625 2.625,-3.09375 7.9688,-3.09375 5.0625,0 7.7812,3.09375 2.7188,3.09375 2.7188,7.40625 z"
         style="font-style:normal;font-variant:normal;font-weight:normal;font-stretch:normal;font-size:192px;font-family:Georgia;-inkscape-font-specification:Georgia;letter-spacing:0.38671976px;fill:#b1c147;fill-opacity:1"
         id="path1040" />
    </g>
    <flowRoot
       xml:space="preserve"
       id="flowRoot1032"
       style="fill:black;fill-opacity:1;stroke:none;font-family:sans-serif;font-style:normal;font-weight:normal;font-size:40px;line-height:1.25;letter-spacing:0px;word-spacing:0px"><flowRegion
         id="flowRegion1034"><rect
           id="rect1036"
           width="2600"
           height="1491.4286"
           x="-622.85712"
           y="-527.28717" /></flowRegion><flowPara
         id="flowPara1038"></flowPara></flowRoot>  </g>
</svg>
