<?xml version="1.0" encoding="UTF-8" standalone="no"?>
<!-- Created with Inkscape (http://www.inkscape.org/) -->

<svg
   xmlns:dc="http://purl.org/dc/elements/1.1/"
   xmlns:cc="http://creativecommons.org/ns#"
   xmlns:rdf="http://www.w3.org/1999/02/22-rdf-syntax-ns#"
   xmlns:svg="http://www.w3.org/2000/svg"
   xmlns="http://www.w3.org/2000/svg"
   xmlns:sodipodi="http://sodipodi.sourceforge.net/DTD/sodipodi-0.dtd"
   xmlns:inkscape="http://www.inkscape.org/namespaces/inkscape"
   width="135.46666mm"
   height="135.46666mm"
   viewBox="0 0 135.46666 135.46666"
   version="1.1"
   id="svg5554"
   inkscape:version="0.92.3 (2405546, 2018-03-11)"
   sodipodi:docname="mechanical-icon.svg">
  <defs
     id="defs5548" />
  <sodipodi:namedview
     id="base"
     pagecolor="#ffffff"
     bordercolor="#666666"
     borderopacity="1.0"
     inkscape:pageopacity="0.0"
     inkscape:pageshadow="2"
     inkscape:zoom="0.35"
     inkscape:cx="-664.00002"
     inkscape:cy="210.28571"
     inkscape:document-units="mm"
     inkscape:current-layer="layer1"
     showgrid="false"
     inkscape:window-width="1920"
     inkscape:window-height="1017"
     inkscape:window-x="-8"
     inkscape:window-y="-8"
     inkscape:window-maximized="1"
     fit-margin-top="0"
     fit-margin-left="0"
     fit-margin-right="0"
     fit-margin-bottom="0" />
  <metadata
     id="metadata5551">
    <rdf:RDF>
      <cc:Work
         rdf:about="">
        <dc:format>image/svg+xml</dc:format>
        <dc:type
           rdf:resource="http://purl.org/dc/dcmitype/StillImage" />
        <dc:title></dc:title>
      </cc:Work>
    </rdf:RDF>
  </metadata>
  <g
     inkscape:label="Layer 1"
     inkscape:groupmode="layer"
     id="layer1"
     transform="translate(-35.832148,-69.004763)">
    <g
       id="g6292"
       transform="matrix(0.26458333,0,0,0.26458333,35.832148,69.004763)"
       style="fill:#b1c147;fill-opacity:1">
      <g
         id="g6172"
         style="fill:#b1c147;fill-opacity:1">
        <g
           id="g6170"
           style="fill:#b1c147;fill-opacity:1">
          <path
             id="path6168"
             d="m 504.5,268.5 c -4.142,0 -7.5,3.358 -7.5,7.5 V 483.581 C 497,490.98 490.98,497 483.581,497 H 28.419 C 21.02,497 15,490.98 15,483.581 V 276 c 0,-4.142 -3.358,-7.5 -7.5,-7.5 -4.142,0 -7.5,3.358 -7.5,7.5 V 483.581 C 0,499.251 12.749,512 28.419,512 H 483.58 c 15.67,0 28.419,-12.749 28.419,-28.419 V 276 c 10e-4,-4.142 -3.357,-7.5 -7.499,-7.5 z"
             inkscape:connector-curvature="0"
             style="fill:#b1c147;fill-opacity:1" />
        </g>
      </g>
      <g
         id="g6178"
         style="fill:#b1c147;fill-opacity:1">
        <g
           id="g6176"
           style="fill:#b1c147;fill-opacity:1">
          <path
             id="path6174"
             d="M 483.581,0 H 28.419 C 12.749,0 0,12.749 0,28.419 V 236 c 0,4.142 3.358,7.5 7.5,7.5 4.142,0 7.5,-3.358 7.5,-7.5 V 28.419 C 15,21.02 21.02,15 28.419,15 H 483.58 c 7.4,0 13.42,6.02 13.42,13.419 V 236 c 0,4.142 3.358,7.5 7.5,7.5 4.142,0 7.5,-3.358 7.5,-7.5 V 28.419 C 512,12.749 499.251,0 483.581,0 Z"
             inkscape:connector-curvature="0"
             style="fill:#b1c147;fill-opacity:1" />
        </g>
      </g>
      <g
         id="g6184"
         style="fill:#b1c147;fill-opacity:1">
        <g
           id="g6182"
           style="fill:#b1c147;fill-opacity:1">
          <path
             id="path6180"
             d="M 410.337,101.662 C 369.113,60.436 314.301,37.732 256,37.732 c -58.301,0 -113.113,22.704 -154.338,63.929 -41.226,41.226 -63.93,96.038 -63.93,154.339 0,58.301 22.704,113.113 63.929,154.338 41.225,41.226 96.037,63.929 154.338,63.929 58.301,0 113.113,-22.704 154.338,-63.929 41.226,-41.225 63.929,-96.037 63.929,-154.338 0,-58.301 -22.704,-113.113 -63.929,-154.338 z M 256,459.268 C 143.918,459.268 52.732,368.082 52.732,256 52.732,143.918 143.918,52.732 256,52.732 c 112.082,0 203.268,91.186 203.268,203.268 0,112.082 -91.186,203.268 -203.268,203.268 z"
             inkscape:connector-curvature="0"
             style="fill:#b1c147;fill-opacity:1" />
        </g>
      </g>
      <g
         id="g6190"
         style="fill:#b1c147;fill-opacity:1">
        <g
           id="g6188"
           style="fill:#b1c147;fill-opacity:1">
          <path
             id="path6186"
             d="m 453.215,422.074 c -15.732,0 -28.531,12.799 -28.531,28.531 0,15.732 12.799,28.531 28.531,28.531 15.732,0 28.531,-12.799 28.531,-28.531 0,-15.732 -12.799,-28.531 -28.531,-28.531 z m 0,42.062 c -7.461,0 -13.531,-6.07 -13.531,-13.531 0,-7.461 6.07,-13.531 13.531,-13.531 7.461,0 13.531,6.07 13.531,13.531 0,7.461 -6.07,13.531 -13.531,13.531 z"
             inkscape:connector-curvature="0"
             style="fill:#b1c147;fill-opacity:1" />
        </g>
      </g>
      <g
         id="g6196"
         style="fill:#b1c147;fill-opacity:1">
        <g
           id="g6194"
           style="fill:#b1c147;fill-opacity:1">
          <path
             id="path6192"
             d="m 58.785,422.074 c -15.732,0 -28.531,12.799 -28.531,28.531 0,15.732 12.799,28.531 28.531,28.531 15.732,0 28.531,-12.799 28.531,-28.531 0,-15.732 -12.799,-28.531 -28.531,-28.531 z m 0,42.062 c -7.461,0 -13.531,-6.07 -13.531,-13.531 0,-7.461 6.07,-13.531 13.531,-13.531 7.461,0 13.531,6.07 13.531,13.531 0,7.461 -6.07,13.531 -13.531,13.531 z"
             inkscape:connector-curvature="0"
             style="fill:#b1c147;fill-opacity:1" />
        </g>
      </g>
      <g
         id="g6202"
         style="fill:#b1c147;fill-opacity:1">
        <g
           id="g6200"
           style="fill:#b1c147;fill-opacity:1">
          <path
             id="path6198"
             d="m 58.785,26.5 c -15.732,0 -28.531,12.799 -28.531,28.531 0,15.732 12.799,28.531 28.531,28.531 15.732,0 28.531,-12.799 28.531,-28.531 C 87.316,39.299 74.517,26.5 58.785,26.5 Z m 0,42.062 c -7.461,0 -13.531,-6.07 -13.531,-13.531 0,-7.461 6.07,-13.531 13.531,-13.531 7.461,0 13.531,6.07 13.531,13.531 0,7.461 -6.07,13.531 -13.531,13.531 z"
             inkscape:connector-curvature="0"
             style="fill:#b1c147;fill-opacity:1" />
        </g>
      </g>
      <g
         id="g6208"
         style="fill:#b1c147;fill-opacity:1">
        <g
           id="g6206"
           style="fill:#b1c147;fill-opacity:1">
          <path
             id="path6204"
             d="m 453.215,26.5 c -15.732,0 -28.531,12.799 -28.531,28.531 0,15.732 12.799,28.531 28.531,28.531 15.732,0 28.531,-12.799 28.531,-28.531 0,-15.732 -12.799,-28.531 -28.531,-28.531 z m 0,42.062 c -7.461,0 -13.531,-6.07 -13.531,-13.531 0,-7.461 6.07,-13.531 13.531,-13.531 7.461,0 13.531,6.07 13.531,13.531 0,7.461 -6.07,13.531 -13.531,13.531 z"
             inkscape:connector-curvature="0"
             style="fill:#b1c147;fill-opacity:1" />
        </g>
      </g>
      <g
         id="g6214"
         style="fill:#b1c147;fill-opacity:1">
        <g
           id="g6212"
           style="fill:#b1c147;fill-opacity:1">
          <path
             id="path6210"
             d="m 443.386,245.611 c -0.624,-11.328 -9.284,-20.793 -20.591,-22.507 -14.306,-2.17 -30.979,-3.27 -49.554,-3.27 -14.527,0 -28.027,0.671 -38.656,1.431 17.379,-11.309 39.756,-19.679 66.718,-24.91 7.8,-1.514 14.139,-6.547 17.393,-13.81 3.23,-7.208 2.747,-15.565 -1.293,-22.356 v 0.001 c -9.774,-16.438 -21.97,-31.254 -36.248,-44.039 -4.399,-3.94 -10.09,-6.11 -16.024,-6.11 -5.23,0 -10.227,1.644 -14.45,4.754 -24.869,18.32 -48.746,43.841 -63.675,61.075 4.293,-20.286 14.198,-42.028 29.563,-64.792 4.444,-6.585 5.367,-14.627 2.533,-22.063 -2.813,-7.38 -9.063,-12.948 -16.721,-14.894 -18.467,-4.692 -37.705,-6.556 -56.772,-5.508 -11.327,0.625 -20.792,9.286 -22.506,20.591 -4.632,30.536 -3.468,65.469 -1.839,88.21 -11.309,-17.379 -19.679,-39.756 -24.91,-66.717 -2.195,-11.313 -12.189,-19.524 -23.763,-19.524 -4.348,0 -8.636,1.184 -12.403,3.424 -16.437,9.778 -31.252,21.973 -44.037,36.249 -7.567,8.451 -8.137,21.267 -1.355,30.475 18.321,24.87 43.842,48.746 61.075,63.675 -20.285,-4.293 -42.027,-14.197 -64.791,-29.563 -4,-2.7 -8.646,-4.127 -13.435,-4.127 -11.11,0 -20.783,7.532 -23.523,18.315 -4.709,18.534 -6.563,37.634 -5.508,56.771 0.625,11.327 9.286,20.792 20.591,22.506 14.307,2.17 30.979,3.271 49.554,3.271 14.522,0 28.024,-0.672 38.656,-1.431 -17.379,11.309 -39.756,19.679 -66.718,24.91 -7.799,1.514 -14.138,6.547 -17.393,13.81 -3.23,7.208 -2.747,15.565 1.292,22.356 9.778,16.437 21.974,31.252 36.249,44.037 4.4,3.939 10.091,6.109 16.024,6.109 5.231,0 10.228,-1.644 14.451,-4.754 24.87,-18.321 48.746,-43.841 63.674,-61.074 -4.293,20.286 -14.197,42.027 -29.562,64.791 -4.445,6.585 -5.368,14.627 -2.534,22.064 2.813,7.38 9.064,12.948 16.722,14.894 15.13,3.844 30.734,5.793 46.384,5.793 3.448,0 6.942,-0.096 10.387,-0.286 11.327,-0.625 20.792,-9.286 22.506,-20.591 4.63,-30.537 3.468,-65.47 1.839,-88.21 11.308,17.38 19.679,39.756 24.911,66.717 2.194,11.313 12.188,19.525 23.763,19.526 4.347,0 8.635,-1.184 12.402,-3.424 16.436,-9.777 31.252,-21.973 44.036,-36.249 7.569,-8.451 8.139,-21.268 1.355,-30.475 -18.322,-24.872 -43.842,-48.747 -61.074,-63.675 20.285,4.293 42.027,14.197 64.792,29.563 4,2.7 8.646,4.126 13.435,4.126 11.109,0 20.782,-7.531 23.522,-18.315 4.709,-18.535 6.563,-37.635 5.508,-56.77 z m -83.81,-118.739 c 1.627,-1.198 3.548,-1.832 5.555,-1.832 2.236,0 4.373,0.811 6.018,2.284 13.142,11.769 24.367,25.405 33.363,40.532 1.546,2.599 1.731,5.796 0.496,8.554 -1.249,2.786 -3.579,4.639 -6.562,5.218 -30.099,5.84 -55.107,15.472 -74.486,28.673 -6.686,-9.91 -15.481,-18.282 -25.735,-24.476 14.44,-16.683 37.532,-41.406 61.351,-58.953 z M 237.933,91.453 c 0.655,-4.32 4.231,-7.627 8.502,-7.863 3.17,-0.175 6.388,-0.263 9.564,-0.263 14.401,0 28.764,1.794 42.688,5.332 2.931,0.745 5.323,2.875 6.398,5.697 1.087,2.854 0.75,5.812 -0.949,8.331 -17.146,25.401 -28.017,49.886 -32.39,72.914 -0.426,-0.083 -0.857,-0.143 -1.285,-0.219 -0.795,-0.142 -1.587,-0.289 -2.39,-0.408 -0.59,-0.088 -1.184,-0.151 -1.776,-0.226 -0.731,-0.092 -1.459,-0.194 -2.196,-0.266 -0.753,-0.075 -1.51,-0.119 -2.266,-0.173 -0.585,-0.041 -1.166,-0.098 -1.755,-0.127 -1.357,-0.067 -2.716,-0.103 -4.078,-0.103 -1.262,0 -2.519,0.038 -3.774,0.096 -0.241,0.011 -0.482,0.02 -0.722,0.033 -1.176,0.064 -2.348,0.154 -3.517,0.268 -0.295,0.029 -0.588,0.063 -0.883,0.095 -1.047,0.114 -2.091,0.245 -3.131,0.399 -0.325,0.048 -0.648,0.1 -0.971,0.152 -0.905,0.146 -1.807,0.308 -2.707,0.485 -0.457,0.089 -0.914,0.179 -1.369,0.276 -0.9,0.193 -1.798,0.397 -2.691,0.62 -1.585,-22.01 -2.736,-55.811 1.698,-85.05 z m -99.177,185.714 c -17.823,0 -33.738,-1.043 -47.304,-3.101 -4.32,-0.655 -7.626,-4.231 -7.862,-8.502 -0.971,-17.615 0.734,-35.194 5.068,-52.251 1.048,-4.126 4.743,-7.009 8.985,-7.009 1.788,0 3.531,0.539 5.043,1.56 25.402,17.146 49.886,28.017 72.914,32.39 -0.083,0.426 -0.143,0.857 -0.219,1.285 -0.142,0.795 -0.289,1.587 -0.408,2.39 -0.088,0.59 -0.151,1.184 -0.226,1.776 -0.092,0.731 -0.194,1.459 -0.266,2.196 -0.075,0.753 -0.119,1.51 -0.173,2.266 -0.041,0.585 -0.098,1.166 -0.127,1.755 -0.067,1.357 -0.103,2.716 -0.103,4.078 0,1.262 0.038,2.519 0.096,3.774 0.011,0.241 0.02,0.482 0.033,0.723 0.064,1.175 0.154,2.347 0.268,3.515 0.029,0.296 0.063,0.591 0.095,0.887 0.114,1.043 0.244,2.083 0.398,3.12 0.049,0.332 0.102,0.662 0.155,0.992 0.145,0.898 0.306,1.792 0.481,2.685 0.09,0.463 0.181,0.925 0.279,1.386 0.192,0.897 0.396,1.792 0.618,2.682 -10.37,0.744 -23.564,1.403 -37.745,1.403 z M 126.872,152.423 c -2.591,-3.519 -2.401,-8.385 0.453,-11.572 11.768,-13.14 25.404,-24.365 40.53,-33.363 1.448,-0.861 3.085,-1.316 4.735,-1.316 4.407,0 8.208,3.104 9.038,7.382 5.84,30.099 15.472,55.107 28.673,74.486 -9.91,6.686 -18.283,15.481 -24.476,25.735 -16.682,-14.439 -41.406,-37.533 -58.953,-61.352 z m 25.551,232.704 c -1.626,1.198 -3.547,1.832 -5.555,1.832 -2.235,0 -4.373,-0.812 -6.018,-2.284 -13.14,-11.768 -24.365,-25.404 -33.364,-40.531 -1.546,-2.599 -1.731,-5.797 -0.496,-8.554 1.249,-2.787 3.579,-4.64 6.562,-5.219 30.099,-5.84 55.107,-15.472 74.486,-28.673 6.686,9.91 15.481,18.283 25.735,24.476 -14.437,16.683 -37.531,41.407 -61.35,58.953 z m 121.644,35.42 c -0.655,4.32 -4.231,7.626 -8.502,7.862 -17.54,0.967 -35.256,-0.75 -52.251,-5.068 -2.932,-0.745 -5.324,-2.875 -6.399,-5.697 -1.087,-2.854 -0.75,-5.812 0.95,-8.331 17.146,-25.402 28.017,-49.886 32.389,-72.914 0.417,0.082 0.838,0.139 1.256,0.215 0.804,0.144 1.606,0.292 2.417,0.413 0.597,0.089 1.197,0.153 1.797,0.229 0.723,0.091 1.444,0.192 2.173,0.264 0.766,0.076 1.536,0.121 2.305,0.176 0.573,0.04 1.142,0.096 1.719,0.125 1.357,0.067 2.717,0.104 4.08,0.104 1.262,0 2.52,-0.038 3.775,-0.096 0.24,-0.011 0.481,-0.02 0.721,-0.033 1.177,-0.064 2.35,-0.154 3.519,-0.268 0.294,-0.029 0.586,-0.062 0.879,-0.094 1.049,-0.114 2.095,-0.245 3.138,-0.4 0.321,-0.047 0.64,-0.099 0.96,-0.15 0.908,-0.146 1.813,-0.309 2.715,-0.486 0.456,-0.089 0.912,-0.178 1.365,-0.275 0.9,-0.193 1.799,-0.397 2.693,-0.62 1.584,22.004 2.734,55.805 -1.699,85.044 z m 17.985,-108.209 c -0.758,0.488 -1.526,0.96 -2.305,1.418 -0.033,0.019 -0.066,0.038 -0.099,0.057 -0.776,0.454 -1.562,0.895 -2.358,1.318 -0.011,0.006 -0.022,0.014 -0.033,0.02 -2.392,1.269 -4.87,2.394 -7.422,3.37 -0.008,0.003 -0.017,0.005 -0.025,0.008 -0.913,0.349 -1.832,0.675 -2.756,0.982 -0.063,0.021 -0.125,0.043 -0.188,0.064 -0.835,0.276 -1.675,0.529 -2.518,0.771 -0.193,0.055 -0.386,0.112 -0.58,0.165 -0.743,0.206 -1.49,0.395 -2.239,0.575 -0.316,0.075 -0.632,0.149 -0.95,0.22 -0.659,0.148 -1.319,0.286 -1.982,0.413 -0.427,0.082 -0.856,0.157 -1.285,0.23 -0.581,0.1 -1.163,0.197 -1.747,0.281 -0.534,0.077 -1.071,0.141 -1.609,0.205 -0.504,0.06 -1.008,0.124 -1.513,0.173 -0.662,0.064 -1.33,0.108 -1.997,0.152 -0.399,0.026 -0.797,0.062 -1.196,0.082 -1.077,0.052 -2.16,0.082 -3.25,0.082 -1.027,0 -2.047,-0.032 -3.064,-0.078 -0.311,-0.014 -0.622,-0.034 -0.933,-0.052 -0.742,-0.044 -1.48,-0.101 -2.215,-0.169 -0.31,-0.029 -0.621,-0.054 -0.931,-0.087 -0.966,-0.103 -1.927,-0.223 -2.88,-0.367 -0.276,-0.042 -0.55,-0.095 -0.826,-0.14 -0.7,-0.115 -1.397,-0.238 -2.09,-0.374 -0.401,-0.079 -0.8,-0.163 -1.199,-0.25 -0.584,-0.126 -1.165,-0.262 -1.744,-0.403 -0.395,-0.097 -0.791,-0.189 -1.185,-0.293 -3.539,-0.934 -6.959,-2.161 -10.245,-3.637 -0.014,-0.007 -0.028,-0.015 -0.042,-0.022 -11.823,-5.32 -21.932,-14.066 -28.943,-24.935 -0.016,-0.025 -0.032,-0.051 -0.049,-0.076 -0.484,-0.753 -0.953,-1.515 -1.407,-2.288 -0.023,-0.04 -0.045,-0.08 -0.069,-0.119 -0.451,-0.772 -0.889,-1.552 -1.31,-2.343 -0.006,-0.011 -0.013,-0.02 -0.018,-0.031 -1.269,-2.392 -2.394,-4.87 -3.371,-7.422 -0.003,-0.009 -0.005,-0.019 -0.009,-0.028 -0.35,-0.916 -0.677,-1.838 -0.986,-2.765 -0.019,-0.058 -0.04,-0.115 -0.059,-0.173 -0.277,-0.839 -0.531,-1.683 -0.774,-2.53 -0.054,-0.19 -0.109,-0.378 -0.162,-0.569 -0.207,-0.746 -0.397,-1.496 -0.577,-2.248 -0.075,-0.313 -0.148,-0.627 -0.218,-0.941 -0.148,-0.661 -0.286,-1.324 -0.414,-1.989 -0.081,-0.425 -0.156,-0.851 -0.229,-1.279 -0.1,-0.583 -0.197,-1.167 -0.282,-1.753 -0.076,-0.532 -0.141,-1.068 -0.204,-1.604 -0.06,-0.505 -0.124,-1.01 -0.173,-1.517 -0.063,-0.661 -0.108,-1.328 -0.152,-1.995 -0.026,-0.4 -0.063,-0.798 -0.082,-1.198 -0.052,-1.077 -0.082,-2.16 -0.082,-3.249 0,-1.027 0.032,-2.047 0.078,-3.063 0.014,-0.312 0.034,-0.623 0.052,-0.935 0.044,-0.74 0.101,-1.477 0.169,-2.211 0.029,-0.312 0.054,-0.624 0.087,-0.935 0.103,-0.965 0.223,-1.924 0.367,-2.877 0.042,-0.28 0.096,-0.558 0.142,-0.837 0.114,-0.696 0.237,-1.389 0.372,-2.078 0.079,-0.403 0.164,-0.804 0.251,-1.206 0.126,-0.582 0.261,-1.16 0.402,-1.737 0.097,-0.397 0.19,-0.795 0.295,-1.19 0.934,-3.539 2.161,-6.958 3.636,-10.243 0.007,-0.014 0.015,-0.028 0.022,-0.042 5.32,-11.823 14.066,-21.932 24.935,-28.943 0.025,-0.016 0.051,-0.032 0.076,-0.049 0.753,-0.484 1.515,-0.953 2.288,-1.407 0.04,-0.023 0.08,-0.045 0.119,-0.069 0.772,-0.451 1.552,-0.889 2.343,-1.31 0.011,-0.006 0.02,-0.013 0.031,-0.018 2.39,-1.268 4.866,-2.393 7.416,-3.368 0.011,-0.004 0.022,-0.007 0.034,-0.011 0.916,-0.35 1.838,-0.677 2.765,-0.986 0.058,-0.019 0.115,-0.04 0.173,-0.059 0.839,-0.277 1.683,-0.531 2.53,-0.774 0.19,-0.054 0.378,-0.109 0.569,-0.162 0.746,-0.207 1.496,-0.397 2.248,-0.577 0.313,-0.075 0.627,-0.148 0.941,-0.218 0.661,-0.148 1.324,-0.286 1.989,-0.414 0.425,-0.081 0.851,-0.156 1.279,-0.229 0.583,-0.1 1.167,-0.197 1.753,-0.282 0.532,-0.076 1.068,-0.141 1.604,-0.204 0.505,-0.06 1.01,-0.124 1.517,-0.173 0.661,-0.063 1.328,-0.108 1.995,-0.152 0.4,-0.026 0.798,-0.063 1.198,-0.082 1.077,-0.052 2.16,-0.082 3.249,-0.082 1.027,0 2.047,0.032 3.063,0.078 0.312,0.014 0.623,0.034 0.935,0.052 0.74,0.044 1.477,0.101 2.211,0.169 0.312,0.029 0.624,0.054 0.935,0.087 0.965,0.103 1.924,0.223 2.877,0.367 0.28,0.042 0.558,0.096 0.837,0.142 0.696,0.114 1.389,0.237 2.078,0.372 0.403,0.079 0.804,0.164 1.206,0.251 0.582,0.126 1.16,0.261 1.737,0.402 0.397,0.097 0.795,0.19 1.19,0.295 3.539,0.934 6.958,2.161 10.243,3.636 0.014,0.007 0.028,0.015 0.042,0.022 11.823,5.32 21.932,14.066 28.943,24.935 0.016,0.025 0.032,0.051 0.049,0.076 0.484,0.753 0.953,1.515 1.407,2.288 0.023,0.04 0.045,0.08 0.069,0.119 0.451,0.772 0.889,1.552 1.31,2.343 0.006,0.011 0.013,0.02 0.018,0.031 1.269,2.392 2.394,4.87 3.371,7.422 0.003,0.009 0.005,0.019 0.009,0.028 0.35,0.915 0.676,1.836 0.985,2.762 0.02,0.06 0.041,0.119 0.06,0.178 0.276,0.837 0.53,1.68 0.773,2.525 0.055,0.191 0.111,0.382 0.163,0.574 0.206,0.745 0.396,1.493 0.576,2.244 0.075,0.314 0.148,0.629 0.219,0.945 0.148,0.66 0.286,1.322 0.414,1.986 0.081,0.425 0.156,0.853 0.229,1.281 0.1,0.582 0.197,1.166 0.282,1.751 0.077,0.533 0.141,1.069 0.205,1.606 0.06,0.505 0.124,1.009 0.173,1.516 0.064,0.662 0.108,1.329 0.152,1.996 0.026,0.399 0.062,0.798 0.082,1.198 0.052,1.077 0.082,2.16 0.082,3.25 0,1.027 -0.032,2.047 -0.078,3.063 -0.014,0.312 -0.034,0.623 -0.052,0.935 -0.044,0.74 -0.101,1.477 -0.169,2.211 -0.029,0.312 -0.054,0.624 -0.087,0.935 -0.103,0.965 -0.223,1.924 -0.367,2.877 -0.042,0.28 -0.096,0.558 -0.142,0.837 -0.114,0.696 -0.237,1.389 -0.372,2.078 -0.079,0.403 -0.164,0.804 -0.251,1.206 -0.126,0.582 -0.261,1.16 -0.402,1.737 -0.097,0.397 -0.19,0.795 -0.295,1.19 -0.934,3.539 -2.161,6.958 -3.636,10.243 -0.007,0.014 -0.015,0.028 -0.022,0.042 -5.322,11.825 -14.07,21.938 -24.944,28.949 -0.02,0.007 -0.039,0.019 -0.057,0.031 z m 93.075,47.239 c 2.592,3.518 2.401,8.385 -0.453,11.572 -11.768,13.141 -25.404,24.366 -40.529,33.363 -1.448,0.861 -3.086,1.316 -4.736,1.316 -4.407,0 -8.208,-3.104 -9.037,-7.382 -5.841,-30.099 -15.473,-55.107 -28.673,-74.486 9.91,-6.686 18.282,-15.481 24.475,-25.735 16.683,14.438 41.406,37.531 58.953,61.352 z m 38.215,-60.892 c -1.049,4.127 -4.744,7.009 -8.985,7.009 -1.787,0 -3.531,-0.54 -5.042,-1.56 -25.403,-17.146 -49.887,-28.017 -72.914,-32.39 0.084,-0.43 0.144,-0.864 0.221,-1.295 0.141,-0.79 0.287,-1.577 0.405,-2.375 0.09,-0.604 0.155,-1.211 0.232,-1.817 0.09,-0.718 0.19,-1.433 0.262,-2.157 0.076,-0.765 0.121,-1.534 0.176,-2.302 0.04,-0.575 0.096,-1.145 0.125,-1.722 0.067,-1.357 0.104,-2.717 0.104,-4.08 0,-1.262 -0.038,-2.519 -0.096,-3.774 -0.011,-0.241 -0.02,-0.482 -0.033,-0.723 -0.064,-1.175 -0.154,-2.347 -0.268,-3.515 -0.029,-0.296 -0.063,-0.591 -0.095,-0.887 -0.114,-1.043 -0.244,-2.083 -0.398,-3.12 -0.049,-0.332 -0.102,-0.662 -0.155,-0.992 -0.145,-0.898 -0.306,-1.793 -0.481,-2.685 -0.09,-0.463 -0.181,-0.925 -0.279,-1.385 -0.192,-0.897 -0.396,-1.792 -0.618,-2.683 10.364,-0.739 23.556,-1.399 37.739,-1.399 17.825,0 33.741,1.043 47.306,3.1 4.32,0.655 7.626,4.231 7.862,8.502 0.971,17.613 -0.734,35.192 -5.068,52.25 z"
             inkscape:connector-curvature="0"
             style="fill:#b1c147;fill-opacity:1" />
        </g>
      </g>
      <g
         id="g6216"
         style="fill:#b1c147;fill-opacity:1" />
      <g
         id="g6218"
         style="fill:#b1c147;fill-opacity:1" />
      <g
         id="g6220"
         style="fill:#b1c147;fill-opacity:1" />
      <g
         id="g6222"
         style="fill:#b1c147;fill-opacity:1" />
      <g
         id="g6224"
         style="fill:#b1c147;fill-opacity:1" />
      <g
         id="g6226"
         style="fill:#b1c147;fill-opacity:1" />
      <g
         id="g6228"
         style="fill:#b1c147;fill-opacity:1" />
      <g
         id="g6230"
         style="fill:#b1c147;fill-opacity:1" />
      <g
         id="g6232"
         style="fill:#b1c147;fill-opacity:1" />
      <g
         id="g6234"
         style="fill:#b1c147;fill-opacity:1" />
      <g
         id="g6236"
         style="fill:#b1c147;fill-opacity:1" />
      <g
         id="g6238"
         style="fill:#b1c147;fill-opacity:1" />
      <g
         id="g6240"
         style="fill:#b1c147;fill-opacity:1" />
      <g
         id="g6242"
         style="fill:#b1c147;fill-opacity:1" />
      <g
         id="g6244"
         style="fill:#b1c147;fill-opacity:1" />
    </g>
  </g>
</svg>
