<?xml version="1.0" encoding="UTF-8" standalone="no"?>
<!-- Created with Inkscape (http://www.inkscape.org/) -->

<svg
   xmlns:dc="http://purl.org/dc/elements/1.1/"
   xmlns:cc="http://creativecommons.org/ns#"
   xmlns:rdf="http://www.w3.org/1999/02/22-rdf-syntax-ns#"
   xmlns:svg="http://www.w3.org/2000/svg"
   xmlns="http://www.w3.org/2000/svg"
   xmlns:sodipodi="http://sodipodi.sourceforge.net/DTD/sodipodi-0.dtd"
   xmlns:inkscape="http://www.inkscape.org/namespaces/inkscape"
   width="132.10011mm"
   height="135.46666mm"
   viewBox="0 0 132.10011 135.46666"
   version="1.1"
   id="svg5554"
   inkscape:version="0.92.3 (2405546, 2018-03-11)"
   sodipodi:docname="plumbing-icon.svg">
  <defs
     id="defs5548" />
  <sodipodi:namedview
     id="base"
     pagecolor="#ffffff"
     bordercolor="#666666"
     borderopacity="1.0"
     inkscape:pageopacity="0.0"
     inkscape:pageshadow="2"
     inkscape:zoom="0.35"
     inkscape:cx="-681.79059"
     inkscape:cy="158.85714"
     inkscape:document-units="mm"
     inkscape:current-layer="layer1"
     showgrid="false"
     inkscape:window-width="1920"
     inkscape:window-height="1017"
     inkscape:window-x="-8"
     inkscape:window-y="-8"
     inkscape:window-maximized="1"
     fit-margin-top="0"
     fit-margin-left="0"
     fit-margin-right="0"
     fit-margin-bottom="0" />
  <metadata
     id="metadata5551">
    <rdf:RDF>
      <cc:Work
         rdf:about="">
        <dc:format>image/svg+xml</dc:format>
        <dc:type
           rdf:resource="http://purl.org/dc/dcmitype/StillImage" />
        <dc:title></dc:title>
      </cc:Work>
    </rdf:RDF>
  </metadata>
  <g
     inkscape:label="Layer 1"
     inkscape:groupmode="layer"
     id="layer1"
     transform="translate(-40.539236,-55.397619)">
    <g
       id="g6426"
       transform="matrix(0.26458333,0,0,0.26458333,38.855957,55.397619)"
       style="fill:#b1c147;fill-opacity:1">
      <g
         id="g6351"
         style="fill:#b1c147;fill-opacity:1">
        <g
           id="g6349"
           style="fill:#b1c147;fill-opacity:1">
          <path
             id="path6347"
             d="m 497.689,31.801 h -6.89 V 7.95 C 490.799,3.559 487.24,0 482.849,0 h -61.482 c -4.392,0 -7.95,3.56 -7.95,7.95 v 23.851 h -9.01 c -4.392,0 -7.95,3.56 -7.95,7.95 v 25.441 c 0,4.391 3.559,7.95 7.95,7.95 h 9.01 v 23.851 c 0,4.391 3.559,7.95 7.95,7.95 4.392,0 7.95,-3.56 7.95,-7.95 v -23.85 h 45.582 v 115.014 c 0,48.222 -39.232,87.453 -87.453,87.453 h -59.892 v -47.702 h 62.012 c 21.919,0 39.752,-17.832 39.752,-39.752 v -48.762 c 0,-4.391 -3.559,-7.95 -7.95,-7.95 -4.392,0 -7.95,3.56 -7.95,7.95 v 48.762 c 0,13.152 -10.7,23.851 -23.851,23.851 h -62.012 v -11.13 c 0,-4.391 -3.559,-7.95 -7.95,-7.95 h -25.441 c -4.392,0 -7.95,3.56 -7.95,7.95 v 11.13 H 268.19 v -56.182 h 8.531 c 3.471,12.22 14.723,21.201 28.04,21.201 16.073,0 29.151,-13.077 29.151,-29.151 0,-16.074 -13.078,-29.151 -29.151,-29.151 -13.317,0 -24.57,8.981 -28.04,21.201 h -32.963 c -3.471,-12.22 -14.723,-21.201 -28.04,-21.201 -16.073,0 -29.151,13.077 -29.151,29.151 0,16.074 13.078,29.151 29.151,29.151 13.317,0 24.57,-8.981 28.04,-21.201 h 8.531 v 56.182 h -18.021 v -11.13 c 0,-4.391 -3.559,-7.95 -7.95,-7.95 h -25.441 c -4.392,0 -7.95,3.56 -7.95,7.95 v 11.13 h -66.253 c -56.99,0 -103.354,46.364 -103.354,103.354 v 36.041 c 0,4.391 3.559,7.95 7.95,7.95 4.392,0 7.95,-3.56 7.95,-7.95 v -36.041 c 0,-48.222 39.232,-87.453 87.453,-87.453 h 66.253 v 47.702 h -68.373 c -21.92,0 -39.752,17.832 -39.752,39.752 V 436.737 H 39.222 v -42.932 c 0,-4.391 -3.559,-7.95 -7.95,-7.95 -4.392,0 -7.95,3.56 -7.95,7.95 v 42.932 h -9.01 c -4.392,0 -7.95,3.56 -7.95,7.95 v 25.441 c 0,4.391 3.559,7.95 7.95,7.95 h 9.01 v 23.851 c 0,4.391 3.559,7.95 7.95,7.95 h 61.482 c 4.392,0 7.95,-3.56 7.95,-7.95 v -23.851 h 6.89 c 4.392,0 7.95,-3.56 7.95,-7.95 v -25.441 c 0,-4.391 -3.559,-7.95 -7.95,-7.95 h -6.89 V 315.362 c 0,-13.152 10.7,-23.851 23.851,-23.851 h 68.373 v 11.13 c 0,4.391 3.559,7.95 7.95,7.95 h 25.441 c 4.392,0 7.95,-3.56 7.95,-7.95 v -11.13 h 51.942 v 11.13 c 0,4.391 3.559,7.95 7.95,7.95 h 25.441 c 4.392,0 7.95,-3.56 7.95,-7.95 v -11.13 h 59.892 c 56.99,0 103.354,-46.364 103.354,-103.354 V 73.143 h 6.89 c 4.392,0 7.95,-3.56 7.95,-7.95 V 39.752 c 0.002,-4.391 -3.557,-7.951 -7.949,-7.951 z M 304.762,134.625 c 7.307,0 13.251,5.944 13.251,13.251 0,7.307 -5.944,13.25 -13.251,13.25 -7.307,0 -13.25,-5.944 -13.25,-13.25 0,-7.306 5.943,-13.251 13.25,-13.251 z m -89.044,26.501 c -7.307,0 -13.251,-5.944 -13.251,-13.25 0,-7.306 5.944,-13.251 13.251,-13.251 7.307,0 13.25,5.944 13.25,13.251 0,7.307 -5.943,13.25 -13.25,13.25 z M 84.803,493.979 H 39.222 v -15.901 h 45.582 v 15.901 z M 99.644,462.178 H 22.261 v -9.54 H 99.644 Z M 218.369,294.692 h -9.54 v -85.863 h 9.54 z m 67.842,-19.081 h -51.942 v -47.702 h 51.942 z m 25.441,19.081 h -9.54 v -85.863 h 9.54 z M 429.317,15.901 h 45.582 v 15.901 h -45.582 z m 60.422,41.341 h -77.383 v -9.54 h 77.383 z"
             inkscape:connector-curvature="0"
             style="fill:#b1c147;fill-opacity:1" />
        </g>
      </g>
      <g
         id="g6357"
         style="fill:#b1c147;fill-opacity:1">
        <g
           id="g6355"
           style="fill:#b1c147;fill-opacity:1">
          <path
             id="path6353"
             d="m 301.636,372.824 c -2.223,-3.788 -7.094,-5.057 -10.88,-2.835 -3.788,2.222 -5.056,7.093 -2.835,10.88 22.493,38.34 25.851,55.113 25.851,61.698 0,29.518 -24.014,53.532 -53.532,53.532 -29.518,0 -53.532,-24.014 -53.532,-53.532 0,-22.864 34.199,-77.018 53.514,-104.928 2.823,4.089 6.392,9.349 10.332,15.355 2.408,3.672 7.338,4.696 11.008,2.288 3.672,-2.407 4.696,-7.337 2.288,-11.009 -9.607,-14.648 -16.871,-24.679 -17.175,-25.099 -3.122,-4.304 -9.749,-4.304 -12.872,0 -6.447,8.891 -62.996,87.883 -62.996,123.393 0,38.286 31.147,69.433 69.433,69.433 38.286,0 69.433,-31.147 69.433,-69.433 0,-14.772 -9.171,-37.586 -28.037,-69.743 z"
             inkscape:connector-curvature="0"
             style="fill:#b1c147;fill-opacity:1" />
        </g>
      </g>
      <g
         id="g6363"
         style="fill:#b1c147;fill-opacity:1">
        <g
           id="g6361"
           style="fill:#b1c147;fill-opacity:1">
          <path
             id="path6359"
             d="m 279.693,385.698 c -2.223,-3.788 -7.093,-5.056 -10.88,-2.835 -3.788,2.222 -5.056,7.093 -2.835,10.88 21.563,36.757 22.332,48.441 22.353,48.823 0,15.489 -12.602,28.091 -28.091,28.091 -4.392,0 -7.95,3.56 -7.95,7.95 0,4.39 3.559,7.95 7.95,7.95 24.257,0 43.992,-19.735 43.992,-43.992 0,-3.527 -1.769,-18.054 -24.539,-56.867 z"
             inkscape:connector-curvature="0"
             style="fill:#b1c147;fill-opacity:1" />
        </g>
      </g>
      <g
         id="g6365"
         style="fill:#b1c147;fill-opacity:1" />
      <g
         id="g6367"
         style="fill:#b1c147;fill-opacity:1" />
      <g
         id="g6369"
         style="fill:#b1c147;fill-opacity:1" />
      <g
         id="g6371"
         style="fill:#b1c147;fill-opacity:1" />
      <g
         id="g6373"
         style="fill:#b1c147;fill-opacity:1" />
      <g
         id="g6375"
         style="fill:#b1c147;fill-opacity:1" />
      <g
         id="g6377"
         style="fill:#b1c147;fill-opacity:1" />
      <g
         id="g6379"
         style="fill:#b1c147;fill-opacity:1" />
      <g
         id="g6381"
         style="fill:#b1c147;fill-opacity:1" />
      <g
         id="g6383"
         style="fill:#b1c147;fill-opacity:1" />
      <g
         id="g6385"
         style="fill:#b1c147;fill-opacity:1" />
      <g
         id="g6387"
         style="fill:#b1c147;fill-opacity:1" />
      <g
         id="g6389"
         style="fill:#b1c147;fill-opacity:1" />
      <g
         id="g6391"
         style="fill:#b1c147;fill-opacity:1" />
      <g
         id="g6393"
         style="fill:#b1c147;fill-opacity:1" />
    </g>
  </g>
</svg>
