<?xml version="1.0" encoding="UTF-8" standalone="no"?>
<!-- Created with Inkscape (http://www.inkscape.org/) -->

<svg
   xmlns:dc="http://purl.org/dc/elements/1.1/"
   xmlns:cc="http://creativecommons.org/ns#"
   xmlns:rdf="http://www.w3.org/1999/02/22-rdf-syntax-ns#"
   xmlns:svg="http://www.w3.org/2000/svg"
   xmlns="http://www.w3.org/2000/svg"
   xmlns:sodipodi="http://sodipodi.sourceforge.net/DTD/sodipodi-0.dtd"
   xmlns:inkscape="http://www.inkscape.org/namespaces/inkscape"
   width="131.23334mm"
   height="131.23334mm"
   viewBox="0 0 131.23334 131.23334"
   version="1.1"
   id="svg5554"
   inkscape:version="0.92.3 (2405546, 2018-03-11)"
   sodipodi:docname="construction-icon.svg">
  <defs
     id="defs5548" />
  <sodipodi:namedview
     id="base"
     pagecolor="#ffffff"
     bordercolor="#666666"
     borderopacity="1.0"
     inkscape:pageopacity="0.0"
     inkscape:pageshadow="2"
     inkscape:zoom="0.35"
     inkscape:cx="-543.42857"
     inkscape:cy="133.71428"
     inkscape:document-units="mm"
     inkscape:current-layer="layer1"
     showgrid="false"
     inkscape:window-width="1920"
     inkscape:window-height="1017"
     inkscape:window-x="-8"
     inkscape:window-y="-8"
     inkscape:window-maximized="1"
     fit-margin-top="0"
     fit-margin-left="0"
     fit-margin-right="0"
     fit-margin-bottom="0" />
  <metadata
     id="metadata5551">
    <rdf:RDF>
      <cc:Work
         rdf:about="">
        <dc:format>image/svg+xml</dc:format>
        <dc:type
           rdf:resource="http://purl.org/dc/dcmitype/StillImage" />
        <dc:title></dc:title>
      </cc:Work>
    </rdf:RDF>
  </metadata>
  <g
     inkscape:label="Layer 1"
     inkscape:groupmode="layer"
     id="layer1"
     transform="translate(-3.9309532,-52.978572)">
    <g
       id="g6166"
       transform="matrix(0.26458333,0,0,0.26458333,3.9309532,52.978572)"
       style="fill:#b1c147;fill-opacity:1">
      <g
         id="g6107"
         style="fill:#b1c147;fill-opacity:1">
        <g
           id="g6105"
           style="fill:#b1c147;fill-opacity:1">
          <g
             id="g6103"
             style="fill:#b1c147;fill-opacity:1">
            <path
               id="path6099"
               d="M 472,432 H 448 V 188.464 c 4.584,2.272 9.624,3.536 14.76,3.536 18.328,0 33.24,-14.912 33.24,-33.536 0,-11.752 -6.296,-22.736 -16.432,-28.672 L 258.168,0 H 237.784 L 152,51.472 V 56 h -2.072 L 72,99.296 V 104 H 69.704 L 0,147.568 V 200 H 18.056 L 32,192.312 V 432 H 24 C 10.768,432 0,442.768 0,456 v 16 c 0,13.232 10.768,24 24,24 h 448 c 13.232,0 24,-10.768 24,-24 v -16 c 0,-13.232 -10.768,-24 -24,-24 z M 256,17.272 471.48,143.592 c 5.256,3.072 8.52,8.776 8.52,15.168 0,9.504 -7.736,17.24 -17.24,17.24 -3.016,0 -6,-0.8 -8.616,-2.312 L 256,59.384 Z m 0,60.576 176,101.536 V 432 H 256 Z m -88,-17.32 72,-43.2 V 59.28 L 168,99 Z m -80,48.184 64,-35.56 v 34.68 L 88,143.144 Z M 240,77.552 V 176 H 61.56 Z M 184,384 v -32 h 56 v 32 z m 56,16 v 32 H 216 V 400 Z M 48,384 v -32 h 56 v 32 z m 24,16 v 32 H 48 V 400 Z M 48,336 v -32 h 24 v 32 z m 40,64 h 48 v 32 H 88 Z m 32,-16 v -32 h 48 v 32 z m 32,-48 v -32 h 48 v 32 z m 0,64 h 48 v 32 h -48 z m 64,-64 v -32 h 24 v 32 z m -96,-48 v 16 h 16 v 32 H 88 v -32 h 16 V 288 H 48 v -96 h 192 v 96 z M 16,182.864 v -26.432 l 56,-35 v 30.536 z M 480,472 c 0,4.408 -3.592,8 -8,8 H 24 c -4.408,0 -8,-3.592 -8,-8 v -16 c 0,-4.408 3.592,-8 8,-8 h 448 c 4.408,0 8,3.592 8,8 z"
               inkscape:connector-curvature="0"
               style="fill:#b1c147;fill-opacity:1" />
            <path
               id="path6101"
               d="M 272,352 H 416 V 224 H 272 Z m 80,-112 h 48 v 40 h -48 z m 0,56 h 48 v 40 h -48 z m -64,-56 h 48 v 40 h -48 z m 0,56 h 48 v 40 h -48 z"
               inkscape:connector-curvature="0"
               style="fill:#b1c147;fill-opacity:1" />
          </g>
        </g>
      </g>
      <g
         id="g6109"
         style="fill:#b1c147;fill-opacity:1" />
      <g
         id="g6111"
         style="fill:#b1c147;fill-opacity:1" />
      <g
         id="g6113"
         style="fill:#b1c147;fill-opacity:1" />
      <g
         id="g6115"
         style="fill:#b1c147;fill-opacity:1" />
      <g
         id="g6117"
         style="fill:#b1c147;fill-opacity:1" />
      <g
         id="g6119"
         style="fill:#b1c147;fill-opacity:1" />
      <g
         id="g6121"
         style="fill:#b1c147;fill-opacity:1" />
      <g
         id="g6123"
         style="fill:#b1c147;fill-opacity:1" />
      <g
         id="g6125"
         style="fill:#b1c147;fill-opacity:1" />
      <g
         id="g6127"
         style="fill:#b1c147;fill-opacity:1" />
      <g
         id="g6129"
         style="fill:#b1c147;fill-opacity:1" />
      <g
         id="g6131"
         style="fill:#b1c147;fill-opacity:1" />
      <g
         id="g6133"
         style="fill:#b1c147;fill-opacity:1" />
      <g
         id="g6135"
         style="fill:#b1c147;fill-opacity:1" />
      <g
         id="g6137"
         style="fill:#b1c147;fill-opacity:1" />
    </g>
  </g>
</svg>
